<svg xmlns="http://www.w3.org/2000/svg" xmlns:xlink="http://www.w3.org/1999/xlink" width="500" zoomAndPan="magnify" viewBox="0 0 375 374.999991" height="500" preserveAspectRatio="xMidYMid meet" version="1.0"><defs><g/><clipPath id="a63d0c0374"><path d="M 212.464844 159.914062 L 364.714844 159.914062 L 364.714844 163.664062 L 212.464844 163.664062 Z M 212.464844 159.914062 " clip-rule="nonzero"/></clipPath><clipPath id="876c641c56"><path d="M 212.464844 161.757812 C 212.464844 160.777344 213.230469 159.980469 214.167969 159.980469 L 363.015625 159.980469 C 363.953125 159.980469 364.714844 160.777344 364.714844 161.757812 C 364.714844 162.738281 363.953125 163.535156 363.015625 163.535156 L 214.167969 163.597656 C 213.230469 163.597656 212.464844 162.738281 212.464844 161.757812 Z M 212.464844 161.757812 " clip-rule="nonzero"/></clipPath><linearGradient x1="832.414" gradientTransform="matrix(0.000000000000000036, 0.612981, -0.586705, 0.000000000000000038, 1723.881763, -348.479182)" y1="2576.106904" x2="832.414" gradientUnits="userSpaceOnUse" y2="2316.606903" id="aa943651ad"><stop stop-opacity="1" stop-color="rgb(100%, 87.098694%, 34.899902%)" offset="0"/><stop stop-opacity="1" stop-color="rgb(99.94812%, 87.088013%, 34.941101%)" offset="0.03125"/><stop stop-opacity="1" stop-color="rgb(99.583435%, 87.014771%, 35.244751%)" offset="0.0351563"/><stop stop-opacity="1" stop-color="rgb(99.27063%, 86.952209%, 35.507202%)" offset="0.0390625"/><stop stop-opacity="1" stop-color="rgb(98.956299%, 86.888123%, 35.769653%)" offset="0.0429688"/><stop stop-opacity="1" stop-color="rgb(98.641968%, 86.825562%, 36.032104%)" offset="0.046875"/><stop stop-opacity="1" stop-color="rgb(98.327637%, 86.761475%, 36.294556%)" offset="0.0507813"/><stop stop-opacity="1" stop-color="rgb(98.013306%, 86.698914%, 36.557007%)" offset="0.0546875"/><stop stop-opacity="1" stop-color="rgb(97.698975%, 86.636353%, 36.817932%)" offset="0.0585938"/><stop stop-opacity="1" stop-color="rgb(97.386169%, 86.573792%, 37.080383%)" offset="0.0625"/><stop stop-opacity="1" stop-color="rgb(97.071838%, 86.509705%, 37.342834%)" offset="0.0664062"/><stop stop-opacity="1" stop-color="rgb(96.757507%, 86.447144%, 37.605286%)" offset="0.0703125"/><stop stop-opacity="1" stop-color="rgb(96.443176%, 86.383057%, 37.866211%)" offset="0.0742188"/><stop stop-opacity="1" stop-color="rgb(96.128845%, 86.320496%, 38.128662%)" offset="0.078125"/><stop stop-opacity="1" stop-color="rgb(95.814514%, 86.256409%, 38.391113%)" offset="0.0820312"/><stop stop-opacity="1" stop-color="rgb(95.501709%, 86.193848%, 38.653564%)" offset="0.0859375"/><stop stop-opacity="1" stop-color="rgb(95.187378%, 86.129761%, 38.916016%)" offset="0.0898438"/><stop stop-opacity="1" stop-color="rgb(94.873047%, 86.0672%, 39.178467%)" offset="0.09375"/><stop stop-opacity="1" stop-color="rgb(94.558716%, 86.003113%, 39.439392%)" offset="0.0976562"/><stop stop-opacity="1" stop-color="rgb(94.244385%, 85.940552%, 39.701843%)" offset="0.101562"/><stop stop-opacity="1" stop-color="rgb(93.930054%, 85.876465%, 39.964294%)" offset="0.105469"/><stop stop-opacity="1" stop-color="rgb(93.617249%, 85.813904%, 40.226746%)" offset="0.109375"/><stop stop-opacity="1" stop-color="rgb(93.302917%, 85.751343%, 40.487671%)" offset="0.113281"/><stop stop-opacity="1" stop-color="rgb(92.988586%, 85.688782%, 40.750122%)" offset="0.117188"/><stop stop-opacity="1" stop-color="rgb(92.674255%, 85.624695%, 41.012573%)" offset="0.121094"/><stop stop-opacity="1" stop-color="rgb(92.359924%, 85.562134%, 41.275024%)" offset="0.125"/><stop stop-opacity="1" stop-color="rgb(92.045593%, 85.498047%, 41.53595%)" offset="0.128906"/><stop stop-opacity="1" stop-color="rgb(91.732788%, 85.435486%, 41.798401%)" offset="0.132812"/><stop stop-opacity="1" stop-color="rgb(91.418457%, 85.371399%, 42.060852%)" offset="0.136719"/><stop stop-opacity="1" stop-color="rgb(91.104126%, 85.308838%, 42.323303%)" offset="0.140625"/><stop stop-opacity="1" stop-color="rgb(90.789795%, 85.244751%, 42.585754%)" offset="0.144531"/><stop stop-opacity="1" stop-color="rgb(90.475464%, 85.18219%, 42.848206%)" offset="0.148438"/><stop stop-opacity="1" stop-color="rgb(90.161133%, 85.118103%, 43.109131%)" offset="0.152344"/><stop stop-opacity="1" stop-color="rgb(89.848328%, 85.055542%, 43.371582%)" offset="0.15625"/><stop stop-opacity="1" stop-color="rgb(89.533997%, 84.991455%, 43.634033%)" offset="0.160156"/><stop stop-opacity="1" stop-color="rgb(89.219666%, 84.928894%, 43.896484%)" offset="0.164063"/><stop stop-opacity="1" stop-color="rgb(88.905334%, 84.866333%, 44.15741%)" offset="0.167969"/><stop stop-opacity="1" stop-color="rgb(88.591003%, 84.803772%, 44.419861%)" offset="0.171875"/><stop stop-opacity="1" stop-color="rgb(88.276672%, 84.739685%, 44.682312%)" offset="0.175781"/><stop stop-opacity="1" stop-color="rgb(87.963867%, 84.677124%, 44.944763%)" offset="0.179688"/><stop stop-opacity="1" stop-color="rgb(87.649536%, 84.613037%, 45.205688%)" offset="0.183594"/><stop stop-opacity="1" stop-color="rgb(87.335205%, 84.550476%, 45.46814%)" offset="0.1875"/><stop stop-opacity="1" stop-color="rgb(87.020874%, 84.486389%, 45.730591%)" offset="0.191406"/><stop stop-opacity="1" stop-color="rgb(86.706543%, 84.423828%, 45.993042%)" offset="0.195313"/><stop stop-opacity="1" stop-color="rgb(86.392212%, 84.359741%, 46.255493%)" offset="0.199219"/><stop stop-opacity="1" stop-color="rgb(86.079407%, 84.29718%, 46.517944%)" offset="0.203125"/><stop stop-opacity="1" stop-color="rgb(85.765076%, 84.233093%, 46.77887%)" offset="0.207031"/><stop stop-opacity="1" stop-color="rgb(85.450745%, 84.170532%, 47.041321%)" offset="0.210938"/><stop stop-opacity="1" stop-color="rgb(85.136414%, 84.106445%, 47.303772%)" offset="0.214844"/><stop stop-opacity="1" stop-color="rgb(84.822083%, 84.043884%, 47.566223%)" offset="0.21875"/><stop stop-opacity="1" stop-color="rgb(84.507751%, 83.981323%, 47.827148%)" offset="0.222656"/><stop stop-opacity="1" stop-color="rgb(84.194946%, 83.918762%, 48.0896%)" offset="0.226563"/><stop stop-opacity="1" stop-color="rgb(83.880615%, 83.854675%, 48.352051%)" offset="0.230469"/><stop stop-opacity="1" stop-color="rgb(83.566284%, 83.792114%, 48.614502%)" offset="0.234375"/><stop stop-opacity="1" stop-color="rgb(83.251953%, 83.728027%, 48.875427%)" offset="0.238281"/><stop stop-opacity="1" stop-color="rgb(82.937622%, 83.665466%, 49.137878%)" offset="0.242188"/><stop stop-opacity="1" stop-color="rgb(82.623291%, 83.601379%, 49.40033%)" offset="0.246094"/><stop stop-opacity="1" stop-color="rgb(82.310486%, 83.538818%, 49.662781%)" offset="0.25"/><stop stop-opacity="1" stop-color="rgb(81.996155%, 83.474731%, 49.925232%)" offset="0.253906"/><stop stop-opacity="1" stop-color="rgb(81.681824%, 83.41217%, 50.187683%)" offset="0.257813"/><stop stop-opacity="1" stop-color="rgb(81.367493%, 83.348083%, 50.448608%)" offset="0.261719"/><stop stop-opacity="1" stop-color="rgb(81.053162%, 83.285522%, 50.71106%)" offset="0.265625"/><stop stop-opacity="1" stop-color="rgb(80.738831%, 83.221436%, 50.973511%)" offset="0.269531"/><stop stop-opacity="1" stop-color="rgb(80.426025%, 83.158875%, 51.235962%)" offset="0.273438"/><stop stop-opacity="1" stop-color="rgb(80.111694%, 83.096313%, 51.496887%)" offset="0.277344"/><stop stop-opacity="1" stop-color="rgb(79.797363%, 83.033752%, 51.759338%)" offset="0.28125"/><stop stop-opacity="1" stop-color="rgb(79.483032%, 82.969666%, 52.02179%)" offset="0.285156"/><stop stop-opacity="1" stop-color="rgb(79.170227%, 82.907104%, 52.284241%)" offset="0.289062"/><stop stop-opacity="1" stop-color="rgb(78.855896%, 82.843018%, 52.545166%)" offset="0.292969"/><stop stop-opacity="1" stop-color="rgb(78.541565%, 82.780457%, 52.807617%)" offset="0.296875"/><stop stop-opacity="1" stop-color="rgb(78.227234%, 82.71637%, 53.070068%)" offset="0.300781"/><stop stop-opacity="1" stop-color="rgb(77.912903%, 82.653809%, 53.33252%)" offset="0.304688"/><stop stop-opacity="1" stop-color="rgb(77.598572%, 82.589722%, 53.594971%)" offset="0.308594"/><stop stop-opacity="1" stop-color="rgb(77.285767%, 82.527161%, 53.857422%)" offset="0.3125"/><stop stop-opacity="1" stop-color="rgb(76.971436%, 82.463074%, 54.118347%)" offset="0.316406"/><stop stop-opacity="1" stop-color="rgb(76.657104%, 82.400513%, 54.380798%)" offset="0.320312"/><stop stop-opacity="1" stop-color="rgb(76.342773%, 82.336426%, 54.64325%)" offset="0.324219"/><stop stop-opacity="1" stop-color="rgb(76.028442%, 82.273865%, 54.905701%)" offset="0.328125"/><stop stop-opacity="1" stop-color="rgb(75.714111%, 82.211304%, 55.166626%)" offset="0.332031"/><stop stop-opacity="1" stop-color="rgb(75.401306%, 82.148743%, 55.429077%)" offset="0.335938"/><stop stop-opacity="1" stop-color="rgb(75.086975%, 82.084656%, 55.691528%)" offset="0.339844"/><stop stop-opacity="1" stop-color="rgb(74.772644%, 82.022095%, 55.953979%)" offset="0.34375"/><stop stop-opacity="1" stop-color="rgb(74.458313%, 81.958008%, 56.214905%)" offset="0.347656"/><stop stop-opacity="1" stop-color="rgb(74.143982%, 81.895447%, 56.477356%)" offset="0.351563"/><stop stop-opacity="1" stop-color="rgb(73.829651%, 81.83136%, 56.739807%)" offset="0.355469"/><stop stop-opacity="1" stop-color="rgb(73.516846%, 81.768799%, 57.002258%)" offset="0.359375"/><stop stop-opacity="1" stop-color="rgb(73.202515%, 81.704712%, 57.264709%)" offset="0.363281"/><stop stop-opacity="1" stop-color="rgb(72.888184%, 81.642151%, 57.527161%)" offset="0.367188"/><stop stop-opacity="1" stop-color="rgb(72.573853%, 81.578064%, 57.788086%)" offset="0.371094"/><stop stop-opacity="1" stop-color="rgb(72.259521%, 81.515503%, 58.050537%)" offset="0.375"/><stop stop-opacity="1" stop-color="rgb(71.94519%, 81.451416%, 58.312988%)" offset="0.378906"/><stop stop-opacity="1" stop-color="rgb(71.632385%, 81.388855%, 58.575439%)" offset="0.382812"/><stop stop-opacity="1" stop-color="rgb(71.318054%, 81.324768%, 58.836365%)" offset="0.386719"/><stop stop-opacity="1" stop-color="rgb(71.003723%, 81.262207%, 59.098816%)" offset="0.390625"/><stop stop-opacity="1" stop-color="rgb(70.689392%, 81.199646%, 59.361267%)" offset="0.394531"/><stop stop-opacity="1" stop-color="rgb(70.375061%, 81.137085%, 59.623718%)" offset="0.398438"/><stop stop-opacity="1" stop-color="rgb(70.06073%, 81.072998%, 59.886169%)" offset="0.402344"/><stop stop-opacity="1" stop-color="rgb(69.747925%, 81.010437%, 60.148621%)" offset="0.40625"/><stop stop-opacity="1" stop-color="rgb(69.433594%, 80.94635%, 60.409546%)" offset="0.410156"/><stop stop-opacity="1" stop-color="rgb(69.119263%, 80.883789%, 60.671997%)" offset="0.414063"/><stop stop-opacity="1" stop-color="rgb(68.804932%, 80.819702%, 60.934448%)" offset="0.417969"/><stop stop-opacity="1" stop-color="rgb(68.490601%, 80.757141%, 61.196899%)" offset="0.421875"/><stop stop-opacity="1" stop-color="rgb(68.17627%, 80.693054%, 61.457825%)" offset="0.425781"/><stop stop-opacity="1" stop-color="rgb(67.863464%, 80.630493%, 61.720276%)" offset="0.429688"/><stop stop-opacity="1" stop-color="rgb(67.549133%, 80.566406%, 61.982727%)" offset="0.433594"/><stop stop-opacity="1" stop-color="rgb(67.234802%, 80.503845%, 62.245178%)" offset="0.4375"/><stop stop-opacity="1" stop-color="rgb(66.920471%, 80.439758%, 62.506104%)" offset="0.441406"/><stop stop-opacity="1" stop-color="rgb(66.60614%, 80.377197%, 62.768555%)" offset="0.445312"/><stop stop-opacity="1" stop-color="rgb(66.291809%, 80.314636%, 63.031006%)" offset="0.449219"/><stop stop-opacity="1" stop-color="rgb(65.979004%, 80.252075%, 63.293457%)" offset="0.453125"/><stop stop-opacity="1" stop-color="rgb(65.664673%, 80.187988%, 63.555908%)" offset="0.457031"/><stop stop-opacity="1" stop-color="rgb(65.350342%, 80.125427%, 63.818359%)" offset="0.460937"/><stop stop-opacity="1" stop-color="rgb(65.036011%, 80.06134%, 64.079285%)" offset="0.464844"/><stop stop-opacity="1" stop-color="rgb(64.72168%, 79.998779%, 64.341736%)" offset="0.46875"/><stop stop-opacity="1" stop-color="rgb(64.407349%, 79.934692%, 64.604187%)" offset="0.472656"/><stop stop-opacity="1" stop-color="rgb(64.094543%, 79.872131%, 64.866638%)" offset="0.476563"/><stop stop-opacity="1" stop-color="rgb(63.780212%, 79.808044%, 65.127563%)" offset="0.480469"/><stop stop-opacity="1" stop-color="rgb(63.465881%, 79.745483%, 65.390015%)" offset="0.484375"/><stop stop-opacity="1" stop-color="rgb(63.15155%, 79.681396%, 65.652466%)" offset="0.488281"/><stop stop-opacity="1" stop-color="rgb(62.837219%, 79.618835%, 65.914917%)" offset="0.492188"/><stop stop-opacity="1" stop-color="rgb(62.522888%, 79.554749%, 66.175842%)" offset="0.496094"/><stop stop-opacity="1" stop-color="rgb(62.210083%, 79.492188%, 66.438293%)" offset="0.5"/><stop stop-opacity="1" stop-color="rgb(61.895752%, 79.429626%, 66.700745%)" offset="0.503906"/><stop stop-opacity="1" stop-color="rgb(61.581421%, 79.367065%, 66.963196%)" offset="0.507812"/><stop stop-opacity="1" stop-color="rgb(61.26709%, 79.302979%, 67.225647%)" offset="0.511719"/><stop stop-opacity="1" stop-color="rgb(60.952759%, 79.240417%, 67.488098%)" offset="0.515625"/><stop stop-opacity="1" stop-color="rgb(60.638428%, 79.176331%, 67.749023%)" offset="0.519531"/><stop stop-opacity="1" stop-color="rgb(60.325623%, 79.11377%, 68.011475%)" offset="0.523438"/><stop stop-opacity="1" stop-color="rgb(60.011292%, 79.049683%, 68.273926%)" offset="0.527344"/><stop stop-opacity="1" stop-color="rgb(59.69696%, 78.987122%, 68.536377%)" offset="0.53125"/><stop stop-opacity="1" stop-color="rgb(59.382629%, 78.923035%, 68.797302%)" offset="0.535156"/><stop stop-opacity="1" stop-color="rgb(59.068298%, 78.860474%, 69.059753%)" offset="0.539062"/><stop stop-opacity="1" stop-color="rgb(58.753967%, 78.796387%, 69.322205%)" offset="0.542969"/><stop stop-opacity="1" stop-color="rgb(58.441162%, 78.733826%, 69.584656%)" offset="0.546875"/><stop stop-opacity="1" stop-color="rgb(58.126831%, 78.669739%, 69.845581%)" offset="0.550781"/><stop stop-opacity="1" stop-color="rgb(57.8125%, 78.607178%, 70.108032%)" offset="0.554688"/><stop stop-opacity="1" stop-color="rgb(57.498169%, 78.544617%, 70.370483%)" offset="0.558594"/><stop stop-opacity="1" stop-color="rgb(57.185364%, 78.482056%, 70.632935%)" offset="0.5625"/><stop stop-opacity="1" stop-color="rgb(56.871033%, 78.417969%, 70.895386%)" offset="0.566406"/><stop stop-opacity="1" stop-color="rgb(56.556702%, 78.355408%, 71.157837%)" offset="0.570312"/><stop stop-opacity="1" stop-color="rgb(56.242371%, 78.291321%, 71.418762%)" offset="0.574219"/><stop stop-opacity="1" stop-color="rgb(55.92804%, 78.22876%, 71.681213%)" offset="0.578125"/><stop stop-opacity="1" stop-color="rgb(55.613708%, 78.164673%, 71.943665%)" offset="0.582031"/><stop stop-opacity="1" stop-color="rgb(55.300903%, 78.102112%, 72.206116%)" offset="0.585938"/><stop stop-opacity="1" stop-color="rgb(54.986572%, 78.038025%, 72.467041%)" offset="0.589844"/><stop stop-opacity="1" stop-color="rgb(54.672241%, 77.975464%, 72.729492%)" offset="0.59375"/><stop stop-opacity="1" stop-color="rgb(54.35791%, 77.911377%, 72.991943%)" offset="0.597656"/><stop stop-opacity="1" stop-color="rgb(54.043579%, 77.848816%, 73.254395%)" offset="0.601562"/><stop stop-opacity="1" stop-color="rgb(53.729248%, 77.784729%, 73.51532%)" offset="0.605469"/><stop stop-opacity="1" stop-color="rgb(53.416443%, 77.722168%, 73.777771%)" offset="0.609375"/><stop stop-opacity="1" stop-color="rgb(53.102112%, 77.659607%, 74.040222%)" offset="0.613281"/><stop stop-opacity="1" stop-color="rgb(52.787781%, 77.597046%, 74.302673%)" offset="0.617188"/><stop stop-opacity="1" stop-color="rgb(52.47345%, 77.532959%, 74.565125%)" offset="0.621094"/><stop stop-opacity="1" stop-color="rgb(52.159119%, 77.470398%, 74.827576%)" offset="0.625"/><stop stop-opacity="1" stop-color="rgb(51.844788%, 77.406311%, 75.088501%)" offset="0.628906"/><stop stop-opacity="1" stop-color="rgb(51.531982%, 77.34375%, 75.350952%)" offset="0.632812"/><stop stop-opacity="1" stop-color="rgb(51.217651%, 77.279663%, 75.613403%)" offset="0.636719"/><stop stop-opacity="1" stop-color="rgb(50.90332%, 77.217102%, 75.875854%)" offset="0.640625"/><stop stop-opacity="1" stop-color="rgb(50.588989%, 77.153015%, 76.13678%)" offset="0.644531"/><stop stop-opacity="1" stop-color="rgb(50.274658%, 77.090454%, 76.399231%)" offset="0.648437"/><stop stop-opacity="1" stop-color="rgb(49.960327%, 77.026367%, 76.661682%)" offset="0.652344"/><stop stop-opacity="1" stop-color="rgb(49.647522%, 76.963806%, 76.924133%)" offset="0.65625"/><stop stop-opacity="1" stop-color="rgb(49.333191%, 76.899719%, 77.186584%)" offset="0.660156"/><stop stop-opacity="1" stop-color="rgb(49.01886%, 76.837158%, 77.449036%)" offset="0.664062"/><stop stop-opacity="1" stop-color="rgb(48.704529%, 76.774597%, 77.709961%)" offset="0.667969"/><stop stop-opacity="1" stop-color="rgb(48.390198%, 76.712036%, 77.972412%)" offset="0.671875"/><stop stop-opacity="1" stop-color="rgb(48.075867%, 76.647949%, 78.234863%)" offset="0.675781"/><stop stop-opacity="1" stop-color="rgb(47.763062%, 76.585388%, 78.497314%)" offset="0.679688"/><stop stop-opacity="1" stop-color="rgb(47.44873%, 76.521301%, 78.75824%)" offset="0.683594"/><stop stop-opacity="1" stop-color="rgb(47.134399%, 76.45874%, 79.020691%)" offset="0.6875"/><stop stop-opacity="1" stop-color="rgb(46.820068%, 76.394653%, 79.283142%)" offset="0.691406"/><stop stop-opacity="1" stop-color="rgb(46.505737%, 76.332092%, 79.545593%)" offset="0.695312"/><stop stop-opacity="1" stop-color="rgb(46.191406%, 76.268005%, 79.806519%)" offset="0.699219"/><stop stop-opacity="1" stop-color="rgb(45.878601%, 76.205444%, 80.06897%)" offset="0.703125"/><stop stop-opacity="1" stop-color="rgb(45.56427%, 76.141357%, 80.331421%)" offset="0.707031"/><stop stop-opacity="1" stop-color="rgb(45.249939%, 76.078796%, 80.593872%)" offset="0.710938"/><stop stop-opacity="1" stop-color="rgb(44.935608%, 76.014709%, 80.856323%)" offset="0.714844"/><stop stop-opacity="1" stop-color="rgb(44.621277%, 75.952148%, 81.118774%)" offset="0.71875"/><stop stop-opacity="1" stop-color="rgb(44.306946%, 75.889587%, 81.3797%)" offset="0.722656"/><stop stop-opacity="1" stop-color="rgb(43.994141%, 75.827026%, 81.642151%)" offset="0.726562"/><stop stop-opacity="1" stop-color="rgb(43.67981%, 75.762939%, 81.904602%)" offset="0.730469"/><stop stop-opacity="1" stop-color="rgb(43.365479%, 75.700378%, 82.167053%)" offset="0.734375"/><stop stop-opacity="1" stop-color="rgb(43.051147%, 75.636292%, 82.427979%)" offset="0.738281"/><stop stop-opacity="1" stop-color="rgb(42.736816%, 75.57373%, 82.69043%)" offset="0.742188"/><stop stop-opacity="1" stop-color="rgb(42.422485%, 75.509644%, 82.952881%)" offset="0.746094"/><stop stop-opacity="1" stop-color="rgb(42.10968%, 75.447083%, 83.215332%)" offset="0.75"/><stop stop-opacity="1" stop-color="rgb(41.795349%, 75.382996%, 83.476257%)" offset="0.753906"/><stop stop-opacity="1" stop-color="rgb(41.481018%, 75.320435%, 83.738708%)" offset="0.757812"/><stop stop-opacity="1" stop-color="rgb(41.166687%, 75.256348%, 84.00116%)" offset="0.761719"/><stop stop-opacity="1" stop-color="rgb(40.852356%, 75.193787%, 84.263611%)" offset="0.765625"/><stop stop-opacity="1" stop-color="rgb(40.538025%, 75.1297%, 84.526062%)" offset="0.769531"/><stop stop-opacity="1" stop-color="rgb(40.22522%, 75.067139%, 84.788513%)" offset="0.773437"/><stop stop-opacity="1" stop-color="rgb(39.910889%, 75.004578%, 85.049438%)" offset="0.777344"/><stop stop-opacity="1" stop-color="rgb(39.596558%, 74.942017%, 85.31189%)" offset="0.78125"/><stop stop-opacity="1" stop-color="rgb(39.282227%, 74.87793%, 85.574341%)" offset="0.785156"/><stop stop-opacity="1" stop-color="rgb(38.967896%, 74.815369%, 85.836792%)" offset="0.789062"/><stop stop-opacity="1" stop-color="rgb(38.653564%, 74.751282%, 86.097717%)" offset="0.792969"/><stop stop-opacity="1" stop-color="rgb(38.340759%, 74.688721%, 86.360168%)" offset="0.796875"/><stop stop-opacity="1" stop-color="rgb(38.026428%, 74.624634%, 86.62262%)" offset="0.800781"/><stop stop-opacity="1" stop-color="rgb(37.712097%, 74.562073%, 86.885071%)" offset="0.804688"/><stop stop-opacity="1" stop-color="rgb(37.397766%, 74.497986%, 87.145996%)" offset="0.808594"/><stop stop-opacity="1" stop-color="rgb(37.083435%, 74.435425%, 87.408447%)" offset="0.8125"/><stop stop-opacity="1" stop-color="rgb(36.769104%, 74.371338%, 87.670898%)" offset="0.816406"/><stop stop-opacity="1" stop-color="rgb(36.456299%, 74.308777%, 87.93335%)" offset="0.820312"/><stop stop-opacity="1" stop-color="rgb(36.141968%, 74.24469%, 88.195801%)" offset="0.824219"/><stop stop-opacity="1" stop-color="rgb(35.827637%, 74.182129%, 88.458252%)" offset="0.828125"/><stop stop-opacity="1" stop-color="rgb(35.513306%, 74.119568%, 88.719177%)" offset="0.832031"/><stop stop-opacity="1" stop-color="rgb(35.2005%, 74.057007%, 88.981628%)" offset="0.835938"/><stop stop-opacity="1" stop-color="rgb(34.886169%, 73.99292%, 89.24408%)" offset="0.839844"/><stop stop-opacity="1" stop-color="rgb(34.571838%, 73.930359%, 89.506531%)" offset="0.84375"/><stop stop-opacity="1" stop-color="rgb(34.257507%, 73.866272%, 89.767456%)" offset="0.847656"/><stop stop-opacity="1" stop-color="rgb(33.943176%, 73.803711%, 90.029907%)" offset="0.851562"/><stop stop-opacity="1" stop-color="rgb(33.628845%, 73.739624%, 90.292358%)" offset="0.855469"/><stop stop-opacity="1" stop-color="rgb(33.31604%, 73.677063%, 90.55481%)" offset="0.859375"/><stop stop-opacity="1" stop-color="rgb(33.001709%, 73.612976%, 90.815735%)" offset="0.863281"/><stop stop-opacity="1" stop-color="rgb(32.687378%, 73.550415%, 91.078186%)" offset="0.867187"/><stop stop-opacity="1" stop-color="rgb(32.373047%, 73.486328%, 91.340637%)" offset="0.871094"/><stop stop-opacity="1" stop-color="rgb(32.058716%, 73.423767%, 91.603088%)" offset="0.875"/><stop stop-opacity="1" stop-color="rgb(31.744385%, 73.35968%, 91.86554%)" offset="0.878906"/><stop stop-opacity="1" stop-color="rgb(31.43158%, 73.297119%, 92.127991%)" offset="0.882812"/><stop stop-opacity="1" stop-color="rgb(31.117249%, 73.233032%, 92.388916%)" offset="0.886719"/><stop stop-opacity="1" stop-color="rgb(30.802917%, 73.170471%, 92.651367%)" offset="0.890625"/><stop stop-opacity="1" stop-color="rgb(30.488586%, 73.10791%, 92.913818%)" offset="0.894531"/><stop stop-opacity="1" stop-color="rgb(30.174255%, 73.045349%, 93.17627%)" offset="0.898438"/><stop stop-opacity="1" stop-color="rgb(29.859924%, 72.981262%, 93.437195%)" offset="0.902344"/><stop stop-opacity="1" stop-color="rgb(29.547119%, 72.918701%, 93.699646%)" offset="0.90625"/><stop stop-opacity="1" stop-color="rgb(29.232788%, 72.854614%, 93.962097%)" offset="0.910156"/><stop stop-opacity="1" stop-color="rgb(28.918457%, 72.792053%, 94.224548%)" offset="0.914062"/><stop stop-opacity="1" stop-color="rgb(28.604126%, 72.727966%, 94.485474%)" offset="0.917969"/><stop stop-opacity="1" stop-color="rgb(28.289795%, 72.665405%, 94.747925%)" offset="0.921875"/><stop stop-opacity="1" stop-color="rgb(27.975464%, 72.601318%, 95.010376%)" offset="0.925781"/><stop stop-opacity="1" stop-color="rgb(27.662659%, 72.538757%, 95.272827%)" offset="0.929688"/><stop stop-opacity="1" stop-color="rgb(27.348328%, 72.47467%, 95.535278%)" offset="0.933594"/><stop stop-opacity="1" stop-color="rgb(27.033997%, 72.412109%, 95.797729%)" offset="0.9375"/><stop stop-opacity="1" stop-color="rgb(26.719666%, 72.348022%, 96.058655%)" offset="0.941406"/><stop stop-opacity="1" stop-color="rgb(26.405334%, 72.285461%, 96.321106%)" offset="0.945312"/><stop stop-opacity="1" stop-color="rgb(26.091003%, 72.2229%, 96.583557%)" offset="0.949219"/><stop stop-opacity="1" stop-color="rgb(25.778198%, 72.160339%, 96.846008%)" offset="0.953125"/><stop stop-opacity="1" stop-color="rgb(25.463867%, 72.096252%, 97.106934%)" offset="0.957031"/><stop stop-opacity="1" stop-color="rgb(25.149536%, 72.033691%, 97.369385%)" offset="0.960938"/><stop stop-opacity="1" stop-color="rgb(24.835205%, 71.969604%, 97.631836%)" offset="0.964844"/><stop stop-opacity="1" stop-color="rgb(24.520874%, 71.907043%, 97.894287%)" offset="0.96875"/><stop stop-opacity="1" stop-color="rgb(24.206543%, 71.842957%, 98.156738%)" offset="0.972656"/><stop stop-opacity="1" stop-color="rgb(23.893738%, 71.780396%, 98.419189%)" offset="0.976562"/><stop stop-opacity="1" stop-color="rgb(23.579407%, 71.716309%, 98.680115%)" offset="0.980469"/><stop stop-opacity="1" stop-color="rgb(23.265076%, 71.653748%, 98.942566%)" offset="0.984375"/><stop stop-opacity="1" stop-color="rgb(22.950745%, 71.589661%, 99.205017%)" offset="0.988281"/><stop stop-opacity="1" stop-color="rgb(22.636414%, 71.5271%, 99.467468%)" offset="0.992188"/><stop stop-opacity="1" stop-color="rgb(22.322083%, 71.463013%, 99.728394%)" offset="0.996094"/><stop stop-opacity="1" stop-color="rgb(22.009277%, 71.400452%, 99.990845%)" offset="1"/></linearGradient></defs><g fill="#ff3131" fill-opacity="1"><g transform="translate(7.614139, 214.284814)"><g><path d="M 43.386719 -47.414062 C 43.386719 -42.722656 39.976562 -39.457031 34.910156 -39.457031 L 33.820312 -39.457031 L 27.851562 -55.371094 L 35.097656 -55.371094 C 39.976562 -55.371094 43.386719 -51.722656 43.386719 -47.414062 Z M 7.671875 -2.035156 C 7.671875 -0.664062 8.480469 0 9.757812 0 L 23.824219 0 C 25.292969 0 26.003906 -0.664062 26.003906 -2.035156 L 26.003906 -24.582031 L 40.355469 -24.582031 C 53.285156 -24.726562 61.90625 -35.949219 61.90625 -47.320312 C 61.90625 -58.875 53.050781 -70.339844 40.023438 -70.339844 L 7.390625 -70.339844 C 6.582031 -70.339844 5.730469 -70.007812 5.730469 -69.203125 C 5.730469 -68.871094 5.921875 -68.632812 6.109375 -68.113281 L 16.863281 -39.503906 L 9.898438 -39.503906 C 8.714844 -39.503906 7.816406 -38.699219 7.816406 -37.417969 L 7.816406 -2.464844 Z M 7.671875 -2.035156 "/></g></g></g><g fill="#ffbd59" fill-opacity="1"><g transform="translate(70.215698, 214.284814)"><g><path d="M 28.136719 -69.34375 C 27.425781 -68.207031 26.953125 -67.023438 26.429688 -65.746094 L 2.132812 -2.132812 C 2.132812 -1.800781 1.988281 -1.5625 1.988281 -1.328125 C 1.988281 -0.425781 2.558594 0 3.742188 0 L 67.875 0 C 69.34375 0 69.863281 -0.570312 69.863281 -1.46875 C 69.863281 -1.707031 69.863281 -1.847656 69.816406 -1.988281 L 45.375 -65.746094 C 44.761719 -67.496094 43.671875 -70.339844 41.777344 -70.339844 L 30.078125 -70.339844 C 29.128906 -70.339844 28.46875 -70.007812 28.136719 -69.34375 Z M 35.902344 -47.222656 C 39.644531 -36.804688 42.773438 -26.667969 46.183594 -16.292969 L 25.53125 -16.292969 Z M 35.902344 -47.222656 "/></g></g></g><g fill="#38b6ff" fill-opacity="1"><g transform="translate(142.004759, 214.284814)"><g><path d="M 0.757812 -1.230469 C 0.710938 -1.136719 0.664062 -0.996094 0.664062 -0.804688 C 0.664062 -0.285156 1.089844 0 1.609375 0 L 18.613281 0 C 19.703125 0 20.605469 -0.664062 21.125 -1.753906 L 33.867188 -20.839844 L 46.75 -1.753906 C 47.273438 -0.664062 48.171875 0 49.261719 0 L 66.21875 0 C 66.785156 0 67.070312 -0.285156 67.070312 -0.804688 C 67.070312 -1.328125 66.691406 -1.941406 66.125 -2.84375 L 43.910156 -36 L 65.695312 -68.492188 C 65.980469 -68.964844 66.125 -69.34375 66.125 -69.582031 C 66.125 -70.292969 65.269531 -70.339844 64.179688 -70.339844 L 48.359375 -70.339844 C 47.175781 -70.339844 46.277344 -69.722656 45.613281 -68.539062 L 33.867188 -51.15625 L 22.261719 -68.539062 C 21.597656 -69.722656 20.699219 -70.339844 19.515625 -70.339844 L 3.03125 -70.339844 C 2.320312 -70.339844 1.609375 -70.246094 1.609375 -69.722656 C 1.609375 -69.34375 1.894531 -68.871094 2.226562 -68.347656 L 23.777344 -36 L 2.464844 -4.167969 C 1.753906 -3.171875 1.277344 -2.179688 0.757812 -1.230469 Z M 0.757812 -1.230469 "/></g></g></g><g fill="#000000" fill-opacity="1"><g transform="translate(212.466612, 213.224087)"><g><path d="M 0 -45.234375 L 5.703125 -45.234375 L 5.703125 -29.5625 C 7.210938 -30.882812 8.910156 -31.914062 10.796875 -32.65625 C 12.691406 -33.40625 14.707031 -33.78125 16.84375 -33.78125 C 19.40625 -33.78125 21.726562 -33.335938 23.8125 -32.453125 C 25.894531 -31.566406 27.675781 -30.351562 29.15625 -28.8125 C 30.632812 -27.28125 31.753906 -25.503906 32.515625 -23.484375 C 33.285156 -21.515625 33.671875 -19.40625 33.671875 -17.15625 L 33.671875 0 L 27.953125 0 L 27.953125 -16.96875 C 27.910156 -19.039062 27.394531 -20.910156 26.40625 -22.578125 C 25.425781 -24.253906 24.09375 -25.582031 22.40625 -26.5625 C 20.726562 -27.550781 18.863281 -28.046875 16.8125 -28.046875 C 14.757812 -28.046875 12.894531 -27.550781 11.21875 -26.5625 C 9.550781 -25.582031 8.222656 -24.257812 7.234375 -22.59375 C 6.253906 -20.9375 5.742188 -19.070312 5.703125 -17 L 5.703125 -0.09375 L 0 -0.09375 Z M 0 -45.234375 "/></g></g></g><g fill="#000000" fill-opacity="1"><g transform="translate(247.636647, 213.224087)"><g><path d="M 16.84375 -33.78125 C 19.925781 -33.78125 22.742188 -33.019531 25.296875 -31.5 C 27.859375 -29.988281 29.898438 -27.953125 31.421875 -25.390625 C 32.941406 -22.835938 33.703125 -20.019531 33.703125 -16.9375 C 33.703125 -13.832031 32.941406 -11.007812 31.421875 -8.46875 C 29.898438 -5.925781 27.859375 -3.894531 25.296875 -2.375 C 22.742188 -0.851562 19.925781 -0.09375 16.84375 -0.09375 C 13.75 -0.09375 10.925781 -0.851562 8.375 -2.375 C 5.832031 -3.894531 3.800781 -5.925781 2.28125 -8.46875 C 0.757812 -11.007812 0 -13.832031 0 -16.9375 C 0 -20.019531 0.757812 -22.835938 2.28125 -25.390625 C 3.800781 -27.953125 5.832031 -29.988281 8.375 -31.5 C 10.925781 -33.019531 13.75 -33.78125 16.84375 -33.78125 Z M 16.84375 -28.046875 C 14.789062 -28.046875 12.921875 -27.546875 11.234375 -26.546875 C 9.554688 -25.554688 8.21875 -24.21875 7.21875 -22.53125 C 6.226562 -20.851562 5.734375 -18.988281 5.734375 -16.9375 C 5.734375 -14.863281 6.226562 -12.984375 7.21875 -11.296875 C 8.21875 -9.617188 9.554688 -8.28125 11.234375 -7.28125 C 12.921875 -6.289062 14.789062 -5.796875 16.84375 -5.796875 C 18.894531 -5.796875 20.757812 -6.289062 22.4375 -7.28125 C 24.125 -8.28125 25.460938 -9.617188 26.453125 -11.296875 C 27.453125 -12.984375 27.953125 -14.863281 27.953125 -16.9375 C 27.953125 -18.988281 27.453125 -20.851562 26.453125 -22.53125 C 25.460938 -24.21875 24.125 -25.554688 22.4375 -26.546875 C 20.757812 -27.546875 18.894531 -28.046875 16.84375 -28.046875 Z M 16.84375 -28.046875 "/></g></g></g><g fill="#000000" fill-opacity="1"><g transform="translate(282.836879, 213.224087)"><g><path d="M 0 -45.234375 L 5.734375 -45.234375 L 5.734375 -25.515625 L 16.84375 -25.515625 L 16.84375 -19.8125 L 5.734375 -19.8125 L 5.734375 -16.90625 C 5.753906 -14.832031 6.253906 -12.957031 7.234375 -11.28125 C 8.222656 -9.613281 9.554688 -8.28125 11.234375 -7.28125 C 12.921875 -6.289062 14.789062 -5.796875 16.84375 -5.796875 L 16.84375 -0.09375 C 13.769531 -0.09375 10.957031 -0.847656 8.40625 -2.359375 C 5.863281 -3.867188 3.835938 -5.882812 2.328125 -8.40625 C 0.816406 -10.9375 0.0390625 -13.75 0 -16.84375 Z M 0 -45.234375 "/></g></g></g><g fill="#000000" fill-opacity="1"><g transform="translate(301.19172, 213.224087)"><g><path d="M 16.84375 -33.78125 C 19.601562 -33.78125 22.15625 -33.160156 24.5 -31.921875 C 26.84375 -30.691406 28.800781 -29.03125 30.375 -26.9375 C 31.945312 -24.84375 32.972656 -22.46875 33.453125 -19.8125 C 33.597656 -18.925781 33.679688 -17.96875 33.703125 -16.9375 C 33.703125 -15.945312 33.617188 -14.988281 33.453125 -14.0625 L 6.09375 -14.0625 C 6.757812 -11.632812 8.066406 -9.648438 10.015625 -8.109375 C 11.972656 -6.566406 14.25 -5.796875 16.84375 -5.796875 C 18.394531 -5.796875 19.847656 -6.085938 21.203125 -6.671875 C 22.566406 -7.253906 23.753906 -8.0625 24.765625 -9.09375 L 28.296875 -4.59375 C 26.785156 -3.175781 25.046875 -2.070312 23.078125 -1.28125 C 21.117188 -0.488281 19.039062 -0.09375 16.84375 -0.09375 C 14.09375 -0.09375 11.535156 -0.707031 9.171875 -1.9375 C 6.816406 -3.164062 4.859375 -4.820312 3.296875 -6.90625 C 1.742188 -9 0.722656 -11.382812 0.234375 -14.0625 C 0.0976562 -14.9375 0.0195312 -15.894531 0 -16.9375 C 0 -17.820312 0.078125 -18.78125 0.234375 -19.8125 C 0.722656 -22.46875 1.742188 -24.84375 3.296875 -26.9375 C 4.859375 -29.03125 6.816406 -30.691406 9.171875 -31.921875 C 11.535156 -33.160156 14.09375 -33.78125 16.84375 -33.78125 Z M 16.84375 -28.046875 C 14.25 -28.046875 11.972656 -27.273438 10.015625 -25.734375 C 8.066406 -24.203125 6.757812 -22.226562 6.09375 -19.8125 L 27.59375 -19.8125 C 26.925781 -22.226562 25.617188 -24.203125 23.671875 -25.734375 C 21.722656 -27.273438 19.445312 -28.046875 16.84375 -28.046875 Z M 16.84375 -28.046875 "/></g></g></g><g fill="#000000" fill-opacity="1"><g transform="translate(336.391951, 213.224087)"><g><path d="M 0 -45.234375 L 5.734375 -45.234375 L 5.734375 -0.09375 L 0 -0.09375 Z M 0 -45.234375 "/></g></g></g><g fill="#000000" fill-opacity="1"><g transform="translate(343.637284, 213.224087)"><g><path d="M 12.828125 -33.75 L 13.640625 -33.78125 C 14.492188 -33.78125 15.394531 -33.726562 16.34375 -33.625 C 17.300781 -33.53125 18.328125 -33.269531 19.421875 -32.84375 C 21.410156 -32.019531 22.847656 -30.96875 23.734375 -29.6875 C 24.210938 -29 24.597656 -28.222656 24.890625 -27.359375 C 25.179688 -26.492188 25.429688 -25.609375 25.640625 -24.703125 L 20.140625 -23.9375 C 19.859375 -25.332031 19.164062 -26.601562 18.0625 -27.75 C 17.53125 -28.25 16.851562 -28.597656 16.03125 -28.796875 C 15.207031 -29.003906 14.257812 -29.109375 13.1875 -29.109375 C 10.71875 -29.109375 8.957031 -28.703125 7.90625 -27.890625 C 6.945312 -27.066406 6.46875 -26.175781 6.46875 -25.21875 C 6.46875 -25.03125 6.523438 -24.597656 6.640625 -23.921875 C 6.765625 -23.253906 7.5625 -22.546875 9.03125 -21.796875 C 10.675781 -21.171875 12.503906 -20.628906 14.515625 -20.171875 C 16.710938 -19.671875 18.804688 -19.039062 20.796875 -18.28125 C 22.796875 -17.53125 24.367188 -16.425781 25.515625 -14.96875 C 26.398438 -13.707031 26.84375 -12.140625 26.84375 -10.265625 C 26.820312 -9.640625 26.660156 -8.816406 26.359375 -7.796875 C 26.054688 -6.785156 25.675781 -5.890625 25.21875 -5.109375 C 24.8125 -4.421875 24.207031 -3.734375 23.40625 -3.046875 C 22.613281 -2.359375 21.6875 -1.796875 20.625 -1.359375 C 19.738281 -0.972656 18.695312 -0.65625 17.5 -0.40625 C 16.300781 -0.15625 15.078125 -0.03125 13.828125 -0.03125 L 13.59375 -0.03125 C 12.300781 -0.03125 10.769531 -0.191406 9 -0.515625 C 7.226562 -0.835938 5.628906 -1.550781 4.203125 -2.65625 C 2.023438 -4.425781 0.625 -7.015625 0 -10.421875 L 5.5625 -11.296875 C 5.675781 -10.484375 5.929688 -9.644531 6.328125 -8.78125 C 6.722656 -7.914062 7.289062 -7.113281 8.03125 -6.375 C 8.675781 -5.769531 9.484375 -5.335938 10.453125 -5.078125 C 11.429688 -4.816406 12.546875 -4.6875 13.796875 -4.6875 C 16.273438 -4.6875 18.109375 -5.1875 19.296875 -6.1875 C 20.484375 -7.195312 21.078125 -8.363281 21.078125 -9.6875 C 21.078125 -10.894531 20.550781 -11.84375 19.5 -12.53125 C 18.78125 -13.007812 16.941406 -13.625 13.984375 -14.375 C 13.773438 -14.414062 13.570312 -14.460938 13.375 -14.515625 C 12.144531 -14.816406 10.863281 -15.164062 9.53125 -15.5625 C 8.207031 -15.957031 6.910156 -16.425781 5.640625 -16.96875 C 4.210938 -17.632812 3.082031 -18.617188 2.25 -19.921875 C 1.414062 -21.234375 0.96875 -22.734375 0.90625 -24.421875 C 0.945312 -25.835938 1.28125 -27.191406 1.90625 -28.484375 C 2.53125 -29.785156 3.4375 -30.878906 4.625 -31.765625 C 5.789062 -32.585938 7.066406 -33.140625 8.453125 -33.421875 C 9.597656 -33.660156 10.785156 -33.78125 12.015625 -33.78125 C 12.296875 -33.78125 12.566406 -33.769531 12.828125 -33.75 Z M 12.828125 -33.75 "/></g></g></g><g clip-path="url(#a63d0c0374)"><g clip-path="url(#876c641c56)"><path fill="url(#aa943651ad)" d="M 364.714844 159.980469 L 212.464844 159.980469 L 212.464844 163.597656 L 364.714844 163.597656 Z M 364.714844 159.980469 " fill-rule="nonzero"/></g></g></svg>