<svg xmlns="http://www.w3.org/2000/svg" xmlns:xlink="http://www.w3.org/1999/xlink" width="500" zoomAndPan="magnify" viewBox="0 0 375 374.999991" height="500" preserveAspectRatio="xMidYMid meet" version="1.0"><defs><g/><clipPath id="9c46084813"><path d="M 290.574219 205.371094 L 341.574219 205.371094 L 341.574219 256.371094 L 290.574219 256.371094 Z M 290.574219 205.371094 " clip-rule="nonzero"/></clipPath><clipPath id="95b7a95d6f"><path d="M 341.574219 230.871094 C 341.574219 231.707031 341.53125 232.539062 341.449219 233.371094 C 341.367188 234.203125 341.246094 235.027344 341.082031 235.847656 C 340.921875 236.664062 340.71875 237.472656 340.476562 238.273438 C 340.234375 239.074219 339.953125 239.859375 339.632812 240.628906 C 339.3125 241.402344 338.957031 242.15625 338.5625 242.890625 C 338.167969 243.628906 337.738281 244.34375 337.277344 245.039062 C 336.8125 245.734375 336.316406 246.402344 335.785156 247.046875 C 335.253906 247.695312 334.695312 248.3125 334.105469 248.902344 C 333.515625 249.492188 332.894531 250.054688 332.25 250.582031 C 331.605469 251.113281 330.933594 251.609375 330.238281 252.074219 C 329.546875 252.539062 328.832031 252.964844 328.09375 253.359375 C 327.355469 253.753906 326.601562 254.109375 325.832031 254.429688 C 325.058594 254.75 324.273438 255.03125 323.476562 255.273438 C 322.675781 255.515625 321.867188 255.71875 321.046875 255.882812 C 320.230469 256.042969 319.402344 256.167969 318.574219 256.25 C 317.742188 256.332031 316.90625 256.371094 316.074219 256.371094 C 315.238281 256.371094 314.40625 256.332031 313.574219 256.25 C 312.742188 256.167969 311.917969 256.042969 311.097656 255.882812 C 310.277344 255.71875 309.46875 255.515625 308.671875 255.273438 C 307.871094 255.03125 307.085938 254.75 306.316406 254.429688 C 305.542969 254.109375 304.789062 253.753906 304.050781 253.359375 C 303.316406 252.964844 302.601562 252.539062 301.90625 252.074219 C 301.210938 251.609375 300.542969 251.113281 299.894531 250.582031 C 299.25 250.054688 298.632812 249.492188 298.042969 248.902344 C 297.453125 248.3125 296.890625 247.695312 296.359375 247.046875 C 295.832031 246.402344 295.335938 245.734375 294.871094 245.039062 C 294.40625 244.34375 293.976562 243.628906 293.585938 242.890625 C 293.191406 242.15625 292.832031 241.402344 292.515625 240.628906 C 292.195312 239.859375 291.914062 239.074219 291.671875 238.273438 C 291.429688 237.472656 291.226562 236.664062 291.0625 235.847656 C 290.898438 235.027344 290.777344 234.203125 290.695312 233.371094 C 290.613281 232.539062 290.574219 231.707031 290.574219 230.871094 C 290.574219 230.035156 290.613281 229.203125 290.695312 228.371094 C 290.777344 227.539062 290.898438 226.714844 291.0625 225.894531 C 291.226562 225.078125 291.429688 224.269531 291.671875 223.46875 C 291.914062 222.667969 292.195312 221.882812 292.515625 221.113281 C 292.832031 220.339844 293.191406 219.585938 293.585938 218.851562 C 293.976562 218.113281 294.40625 217.398438 294.871094 216.703125 C 295.335938 216.007812 295.832031 215.339844 296.359375 214.695312 C 296.890625 214.046875 297.453125 213.429688 298.042969 212.839844 C 298.632812 212.25 299.25 211.6875 299.894531 211.160156 C 300.542969 210.628906 301.210938 210.132812 301.90625 209.667969 C 302.601562 209.203125 303.316406 208.777344 304.050781 208.382812 C 304.789062 207.988281 305.542969 207.632812 306.316406 207.3125 C 307.085938 206.992188 307.871094 206.710938 308.671875 206.46875 C 309.46875 206.226562 310.277344 206.023438 311.097656 205.859375 C 311.917969 205.699219 312.742188 205.574219 313.574219 205.492188 C 314.40625 205.410156 315.238281 205.371094 316.074219 205.371094 C 316.90625 205.371094 317.742188 205.410156 318.574219 205.492188 C 319.402344 205.574219 320.230469 205.699219 321.046875 205.859375 C 321.867188 206.023438 322.675781 206.226562 323.476562 206.46875 C 324.273438 206.710938 325.058594 206.992188 325.832031 207.3125 C 326.601562 207.632812 327.355469 207.988281 328.09375 208.382812 C 328.832031 208.777344 329.546875 209.203125 330.238281 209.667969 C 330.933594 210.132812 331.605469 210.628906 332.25 211.160156 C 332.894531 211.6875 333.515625 212.25 334.105469 212.839844 C 334.695312 213.429688 335.253906 214.046875 335.785156 214.695312 C 336.316406 215.339844 336.8125 216.007812 337.277344 216.703125 C 337.738281 217.398438 338.167969 218.113281 338.5625 218.851562 C 338.957031 219.585938 339.3125 220.339844 339.632812 221.113281 C 339.953125 221.882812 340.234375 222.667969 340.476562 223.46875 C 340.71875 224.269531 340.921875 225.078125 341.082031 225.894531 C 341.246094 226.714844 341.367188 227.539062 341.449219 228.371094 C 341.53125 229.203125 341.574219 230.035156 341.574219 230.871094 Z M 341.574219 230.871094 " clip-rule="nonzero"/></clipPath><linearGradient x1="-0.000000101995" gradientTransform="matrix(50.999999, 0, 0, 50.999999, 290.573028, 205.371165)" y1="-0.000000100995" x2="1.004902" gradientUnits="userSpaceOnUse" y2="0.995049" id="2f721acb6d"><stop stop-opacity="1" stop-color="rgb(0%, 76.899719%, 79.998779%)" offset="0"/><stop stop-opacity="1" stop-color="rgb(0.186157%, 76.66626%, 80.041504%)" offset="0.00390625"/><stop stop-opacity="1" stop-color="rgb(0.37384%, 76.4328%, 80.084229%)" offset="0.0078125"/><stop stop-opacity="1" stop-color="rgb(0.561523%, 76.199341%, 80.126953%)" offset="0.0117188"/><stop stop-opacity="1" stop-color="rgb(0.749207%, 75.965881%, 80.169678%)" offset="0.015625"/><stop stop-opacity="1" stop-color="rgb(0.93689%, 75.732422%, 80.210876%)" offset="0.0195312"/><stop stop-opacity="1" stop-color="rgb(1.124573%, 75.500488%, 80.253601%)" offset="0.0234375"/><stop stop-opacity="1" stop-color="rgb(1.312256%, 75.267029%, 80.296326%)" offset="0.0273438"/><stop stop-opacity="1" stop-color="rgb(1.499939%, 75.033569%, 80.33905%)" offset="0.03125"/><stop stop-opacity="1" stop-color="rgb(1.687622%, 74.80011%, 80.381775%)" offset="0.0351562"/><stop stop-opacity="1" stop-color="rgb(1.875305%, 74.568176%, 80.4245%)" offset="0.0390625"/><stop stop-opacity="1" stop-color="rgb(2.062988%, 74.334717%, 80.465698%)" offset="0.0429688"/><stop stop-opacity="1" stop-color="rgb(2.250671%, 74.101257%, 80.508423%)" offset="0.046875"/><stop stop-opacity="1" stop-color="rgb(2.438354%, 73.867798%, 80.551147%)" offset="0.0507813"/><stop stop-opacity="1" stop-color="rgb(2.626038%, 73.634338%, 80.593872%)" offset="0.0546875"/><stop stop-opacity="1" stop-color="rgb(2.813721%, 73.400879%, 80.636597%)" offset="0.0585938"/><stop stop-opacity="1" stop-color="rgb(3.001404%, 73.168945%, 80.679321%)" offset="0.0625"/><stop stop-opacity="1" stop-color="rgb(3.189087%, 72.935486%, 80.72052%)" offset="0.0664063"/><stop stop-opacity="1" stop-color="rgb(3.37677%, 72.702026%, 80.763245%)" offset="0.0703125"/><stop stop-opacity="1" stop-color="rgb(3.562927%, 72.468567%, 80.805969%)" offset="0.0742188"/><stop stop-opacity="1" stop-color="rgb(3.75061%, 72.236633%, 80.848694%)" offset="0.078125"/><stop stop-opacity="1" stop-color="rgb(3.938293%, 72.003174%, 80.891418%)" offset="0.0820312"/><stop stop-opacity="1" stop-color="rgb(4.125977%, 71.769714%, 80.934143%)" offset="0.0859375"/><stop stop-opacity="1" stop-color="rgb(4.31366%, 71.536255%, 80.975342%)" offset="0.0898438"/><stop stop-opacity="1" stop-color="rgb(4.501343%, 71.302795%, 81.018066%)" offset="0.09375"/><stop stop-opacity="1" stop-color="rgb(4.689026%, 71.069336%, 81.060791%)" offset="0.0976562"/><stop stop-opacity="1" stop-color="rgb(4.876709%, 70.837402%, 81.103516%)" offset="0.101563"/><stop stop-opacity="1" stop-color="rgb(5.064392%, 70.603943%, 81.144714%)" offset="0.105469"/><stop stop-opacity="1" stop-color="rgb(5.252075%, 70.370483%, 81.187439%)" offset="0.109375"/><stop stop-opacity="1" stop-color="rgb(5.439758%, 70.137024%, 81.230164%)" offset="0.113281"/><stop stop-opacity="1" stop-color="rgb(5.627441%, 69.90509%, 81.272888%)" offset="0.117188"/><stop stop-opacity="1" stop-color="rgb(5.815125%, 69.671631%, 81.315613%)" offset="0.121094"/><stop stop-opacity="1" stop-color="rgb(6.002808%, 69.438171%, 81.358337%)" offset="0.125"/><stop stop-opacity="1" stop-color="rgb(6.190491%, 69.204712%, 81.399536%)" offset="0.128906"/><stop stop-opacity="1" stop-color="rgb(6.378174%, 68.972778%, 81.442261%)" offset="0.132812"/><stop stop-opacity="1" stop-color="rgb(6.565857%, 68.739319%, 81.484985%)" offset="0.136719"/><stop stop-opacity="1" stop-color="rgb(6.75354%, 68.505859%, 81.52771%)" offset="0.140625"/><stop stop-opacity="1" stop-color="rgb(6.941223%, 68.2724%, 81.570435%)" offset="0.144531"/><stop stop-opacity="1" stop-color="rgb(7.128906%, 68.03894%, 81.613159%)" offset="0.148438"/><stop stop-opacity="1" stop-color="rgb(7.315063%, 67.805481%, 81.654358%)" offset="0.152344"/><stop stop-opacity="1" stop-color="rgb(7.502747%, 67.573547%, 81.697083%)" offset="0.15625"/><stop stop-opacity="1" stop-color="rgb(7.69043%, 67.340088%, 81.739807%)" offset="0.160156"/><stop stop-opacity="1" stop-color="rgb(7.878113%, 67.106628%, 81.782532%)" offset="0.164062"/><stop stop-opacity="1" stop-color="rgb(8.065796%, 66.873169%, 81.825256%)" offset="0.167969"/><stop stop-opacity="1" stop-color="rgb(8.253479%, 66.641235%, 81.867981%)" offset="0.171875"/><stop stop-opacity="1" stop-color="rgb(8.441162%, 66.407776%, 81.90918%)" offset="0.175781"/><stop stop-opacity="1" stop-color="rgb(8.628845%, 66.174316%, 81.951904%)" offset="0.179688"/><stop stop-opacity="1" stop-color="rgb(8.816528%, 65.940857%, 81.994629%)" offset="0.183594"/><stop stop-opacity="1" stop-color="rgb(9.004211%, 65.707397%, 82.037354%)" offset="0.1875"/><stop stop-opacity="1" stop-color="rgb(9.191895%, 65.473938%, 82.080078%)" offset="0.191406"/><stop stop-opacity="1" stop-color="rgb(9.379578%, 65.242004%, 82.122803%)" offset="0.195312"/><stop stop-opacity="1" stop-color="rgb(9.567261%, 65.008545%, 82.164001%)" offset="0.199219"/><stop stop-opacity="1" stop-color="rgb(9.754944%, 64.775085%, 82.206726%)" offset="0.203125"/><stop stop-opacity="1" stop-color="rgb(9.942627%, 64.541626%, 82.249451%)" offset="0.207031"/><stop stop-opacity="1" stop-color="rgb(10.13031%, 64.309692%, 82.292175%)" offset="0.210938"/><stop stop-opacity="1" stop-color="rgb(10.317993%, 64.076233%, 82.3349%)" offset="0.214844"/><stop stop-opacity="1" stop-color="rgb(10.505676%, 63.842773%, 82.377625%)" offset="0.21875"/><stop stop-opacity="1" stop-color="rgb(10.691833%, 63.609314%, 82.418823%)" offset="0.222656"/><stop stop-opacity="1" stop-color="rgb(10.879517%, 63.375854%, 82.461548%)" offset="0.226562"/><stop stop-opacity="1" stop-color="rgb(11.0672%, 63.142395%, 82.504272%)" offset="0.230469"/><stop stop-opacity="1" stop-color="rgb(11.254883%, 62.910461%, 82.546997%)" offset="0.234375"/><stop stop-opacity="1" stop-color="rgb(11.442566%, 62.677002%, 82.589722%)" offset="0.238281"/><stop stop-opacity="1" stop-color="rgb(11.630249%, 62.443542%, 82.632446%)" offset="0.242188"/><stop stop-opacity="1" stop-color="rgb(11.817932%, 62.210083%, 82.673645%)" offset="0.246094"/><stop stop-opacity="1" stop-color="rgb(12.005615%, 61.978149%, 82.71637%)" offset="0.25"/><stop stop-opacity="1" stop-color="rgb(12.193298%, 61.74469%, 82.759094%)" offset="0.253906"/><stop stop-opacity="1" stop-color="rgb(12.380981%, 61.51123%, 82.801819%)" offset="0.257813"/><stop stop-opacity="1" stop-color="rgb(12.568665%, 61.277771%, 82.844543%)" offset="0.261719"/><stop stop-opacity="1" stop-color="rgb(12.756348%, 61.044312%, 82.887268%)" offset="0.265625"/><stop stop-opacity="1" stop-color="rgb(12.944031%, 60.810852%, 82.928467%)" offset="0.269531"/><stop stop-opacity="1" stop-color="rgb(13.131714%, 60.578918%, 82.971191%)" offset="0.273438"/><stop stop-opacity="1" stop-color="rgb(13.319397%, 60.345459%, 83.013916%)" offset="0.277344"/><stop stop-opacity="1" stop-color="rgb(13.50708%, 60.112%, 83.056641%)" offset="0.28125"/><stop stop-opacity="1" stop-color="rgb(13.694763%, 59.87854%, 83.099365%)" offset="0.285156"/><stop stop-opacity="1" stop-color="rgb(13.882446%, 59.646606%, 83.14209%)" offset="0.289063"/><stop stop-opacity="1" stop-color="rgb(14.070129%, 59.413147%, 83.183289%)" offset="0.292969"/><stop stop-opacity="1" stop-color="rgb(14.257812%, 59.179688%, 83.226013%)" offset="0.296875"/><stop stop-opacity="1" stop-color="rgb(14.44397%, 58.946228%, 83.268738%)" offset="0.300781"/><stop stop-opacity="1" stop-color="rgb(14.631653%, 58.712769%, 83.311462%)" offset="0.304688"/><stop stop-opacity="1" stop-color="rgb(14.819336%, 58.479309%, 83.354187%)" offset="0.308594"/><stop stop-opacity="1" stop-color="rgb(15.007019%, 58.247375%, 83.396912%)" offset="0.3125"/><stop stop-opacity="1" stop-color="rgb(15.194702%, 58.013916%, 83.43811%)" offset="0.316406"/><stop stop-opacity="1" stop-color="rgb(15.382385%, 57.780457%, 83.480835%)" offset="0.320312"/><stop stop-opacity="1" stop-color="rgb(15.570068%, 57.546997%, 83.52356%)" offset="0.324219"/><stop stop-opacity="1" stop-color="rgb(15.757751%, 57.315063%, 83.566284%)" offset="0.328125"/><stop stop-opacity="1" stop-color="rgb(15.945435%, 57.081604%, 83.607483%)" offset="0.332031"/><stop stop-opacity="1" stop-color="rgb(16.133118%, 56.848145%, 83.650208%)" offset="0.335938"/><stop stop-opacity="1" stop-color="rgb(16.320801%, 56.614685%, 83.692932%)" offset="0.339844"/><stop stop-opacity="1" stop-color="rgb(16.508484%, 56.381226%, 83.735657%)" offset="0.34375"/><stop stop-opacity="1" stop-color="rgb(16.696167%, 56.147766%, 83.778381%)" offset="0.347656"/><stop stop-opacity="1" stop-color="rgb(16.88385%, 55.915833%, 83.821106%)" offset="0.351562"/><stop stop-opacity="1" stop-color="rgb(17.071533%, 55.682373%, 83.862305%)" offset="0.355469"/><stop stop-opacity="1" stop-color="rgb(17.259216%, 55.448914%, 83.905029%)" offset="0.359375"/><stop stop-opacity="1" stop-color="rgb(17.446899%, 55.215454%, 83.947754%)" offset="0.363281"/><stop stop-opacity="1" stop-color="rgb(17.634583%, 54.983521%, 83.990479%)" offset="0.367188"/><stop stop-opacity="1" stop-color="rgb(17.822266%, 54.750061%, 84.033203%)" offset="0.371094"/><stop stop-opacity="1" stop-color="rgb(18.009949%, 54.516602%, 84.075928%)" offset="0.375"/><stop stop-opacity="1" stop-color="rgb(18.196106%, 54.283142%, 84.117126%)" offset="0.378906"/><stop stop-opacity="1" stop-color="rgb(18.383789%, 54.049683%, 84.159851%)" offset="0.382812"/><stop stop-opacity="1" stop-color="rgb(18.571472%, 53.816223%, 84.202576%)" offset="0.386719"/><stop stop-opacity="1" stop-color="rgb(18.759155%, 53.58429%, 84.2453%)" offset="0.390625"/><stop stop-opacity="1" stop-color="rgb(18.946838%, 53.35083%, 84.288025%)" offset="0.394531"/><stop stop-opacity="1" stop-color="rgb(19.134521%, 53.117371%, 84.33075%)" offset="0.398438"/><stop stop-opacity="1" stop-color="rgb(19.322205%, 52.883911%, 84.371948%)" offset="0.402344"/><stop stop-opacity="1" stop-color="rgb(19.509888%, 52.651978%, 84.414673%)" offset="0.40625"/><stop stop-opacity="1" stop-color="rgb(19.697571%, 52.418518%, 84.457397%)" offset="0.410156"/><stop stop-opacity="1" stop-color="rgb(19.885254%, 52.185059%, 84.500122%)" offset="0.414063"/><stop stop-opacity="1" stop-color="rgb(20.072937%, 51.951599%, 84.542847%)" offset="0.417969"/><stop stop-opacity="1" stop-color="rgb(20.26062%, 51.71814%, 84.585571%)" offset="0.421875"/><stop stop-opacity="1" stop-color="rgb(20.448303%, 51.48468%, 84.62677%)" offset="0.425781"/><stop stop-opacity="1" stop-color="rgb(20.635986%, 51.252747%, 84.669495%)" offset="0.429688"/><stop stop-opacity="1" stop-color="rgb(20.823669%, 51.019287%, 84.712219%)" offset="0.433594"/><stop stop-opacity="1" stop-color="rgb(21.011353%, 50.785828%, 84.754944%)" offset="0.4375"/><stop stop-opacity="1" stop-color="rgb(21.199036%, 50.552368%, 84.797668%)" offset="0.441406"/><stop stop-opacity="1" stop-color="rgb(21.386719%, 50.320435%, 84.840393%)" offset="0.445313"/><stop stop-opacity="1" stop-color="rgb(21.572876%, 50.086975%, 84.881592%)" offset="0.449219"/><stop stop-opacity="1" stop-color="rgb(21.760559%, 49.853516%, 84.924316%)" offset="0.453125"/><stop stop-opacity="1" stop-color="rgb(21.948242%, 49.620056%, 84.967041%)" offset="0.457031"/><stop stop-opacity="1" stop-color="rgb(22.135925%, 49.386597%, 85.009766%)" offset="0.460938"/><stop stop-opacity="1" stop-color="rgb(22.323608%, 49.153137%, 85.05249%)" offset="0.464844"/><stop stop-opacity="1" stop-color="rgb(22.511292%, 48.921204%, 85.095215%)" offset="0.46875"/><stop stop-opacity="1" stop-color="rgb(22.698975%, 48.687744%, 85.136414%)" offset="0.472656"/><stop stop-opacity="1" stop-color="rgb(22.886658%, 48.454285%, 85.179138%)" offset="0.476563"/><stop stop-opacity="1" stop-color="rgb(23.074341%, 48.220825%, 85.221863%)" offset="0.480469"/><stop stop-opacity="1" stop-color="rgb(23.262024%, 47.988892%, 85.264587%)" offset="0.484375"/><stop stop-opacity="1" stop-color="rgb(23.449707%, 47.755432%, 85.307312%)" offset="0.488281"/><stop stop-opacity="1" stop-color="rgb(23.63739%, 47.521973%, 85.350037%)" offset="0.492188"/><stop stop-opacity="1" stop-color="rgb(23.825073%, 47.288513%, 85.391235%)" offset="0.496094"/><stop stop-opacity="1" stop-color="rgb(24.012756%, 47.055054%, 85.43396%)" offset="0.5"/><stop stop-opacity="1" stop-color="rgb(24.200439%, 46.821594%, 85.476685%)" offset="0.503906"/><stop stop-opacity="1" stop-color="rgb(24.388123%, 46.589661%, 85.519409%)" offset="0.507812"/><stop stop-opacity="1" stop-color="rgb(24.575806%, 46.356201%, 85.562134%)" offset="0.511719"/><stop stop-opacity="1" stop-color="rgb(24.763489%, 46.122742%, 85.604858%)" offset="0.515625"/><stop stop-opacity="1" stop-color="rgb(24.951172%, 45.889282%, 85.646057%)" offset="0.519531"/><stop stop-opacity="1" stop-color="rgb(25.138855%, 45.657349%, 85.688782%)" offset="0.523438"/><stop stop-opacity="1" stop-color="rgb(25.325012%, 45.423889%, 85.731506%)" offset="0.527344"/><stop stop-opacity="1" stop-color="rgb(25.512695%, 45.19043%, 85.774231%)" offset="0.53125"/><stop stop-opacity="1" stop-color="rgb(25.700378%, 44.95697%, 85.816956%)" offset="0.535156"/><stop stop-opacity="1" stop-color="rgb(25.888062%, 44.723511%, 85.85968%)" offset="0.539062"/><stop stop-opacity="1" stop-color="rgb(26.075745%, 44.490051%, 85.900879%)" offset="0.542969"/><stop stop-opacity="1" stop-color="rgb(26.263428%, 44.258118%, 85.943604%)" offset="0.546875"/><stop stop-opacity="1" stop-color="rgb(26.451111%, 44.024658%, 85.986328%)" offset="0.550781"/><stop stop-opacity="1" stop-color="rgb(26.638794%, 43.791199%, 86.029053%)" offset="0.554688"/><stop stop-opacity="1" stop-color="rgb(26.826477%, 43.557739%, 86.070251%)" offset="0.558594"/><stop stop-opacity="1" stop-color="rgb(27.01416%, 43.325806%, 86.112976%)" offset="0.5625"/><stop stop-opacity="1" stop-color="rgb(27.201843%, 43.092346%, 86.155701%)" offset="0.566406"/><stop stop-opacity="1" stop-color="rgb(27.389526%, 42.858887%, 86.198425%)" offset="0.570312"/><stop stop-opacity="1" stop-color="rgb(27.577209%, 42.625427%, 86.24115%)" offset="0.574219"/><stop stop-opacity="1" stop-color="rgb(27.764893%, 42.391968%, 86.283875%)" offset="0.578125"/><stop stop-opacity="1" stop-color="rgb(27.952576%, 42.158508%, 86.325073%)" offset="0.582031"/><stop stop-opacity="1" stop-color="rgb(28.140259%, 41.926575%, 86.367798%)" offset="0.585938"/><stop stop-opacity="1" stop-color="rgb(28.327942%, 41.693115%, 86.410522%)" offset="0.589844"/><stop stop-opacity="1" stop-color="rgb(28.515625%, 41.459656%, 86.453247%)" offset="0.59375"/><stop stop-opacity="1" stop-color="rgb(28.701782%, 41.226196%, 86.495972%)" offset="0.597656"/><stop stop-opacity="1" stop-color="rgb(28.889465%, 40.994263%, 86.538696%)" offset="0.601562"/><stop stop-opacity="1" stop-color="rgb(29.077148%, 40.760803%, 86.579895%)" offset="0.605469"/><stop stop-opacity="1" stop-color="rgb(29.264832%, 40.527344%, 86.62262%)" offset="0.609375"/><stop stop-opacity="1" stop-color="rgb(29.452515%, 40.293884%, 86.665344%)" offset="0.613281"/><stop stop-opacity="1" stop-color="rgb(29.640198%, 40.060425%, 86.708069%)" offset="0.617188"/><stop stop-opacity="1" stop-color="rgb(29.827881%, 39.826965%, 86.750793%)" offset="0.621094"/><stop stop-opacity="1" stop-color="rgb(30.015564%, 39.595032%, 86.793518%)" offset="0.625"/><stop stop-opacity="1" stop-color="rgb(30.203247%, 39.361572%, 86.834717%)" offset="0.628906"/><stop stop-opacity="1" stop-color="rgb(30.39093%, 39.128113%, 86.877441%)" offset="0.632812"/><stop stop-opacity="1" stop-color="rgb(30.578613%, 38.894653%, 86.920166%)" offset="0.636719"/><stop stop-opacity="1" stop-color="rgb(30.766296%, 38.66272%, 86.962891%)" offset="0.640625"/><stop stop-opacity="1" stop-color="rgb(30.953979%, 38.42926%, 87.005615%)" offset="0.644531"/><stop stop-opacity="1" stop-color="rgb(31.141663%, 38.195801%, 87.04834%)" offset="0.648438"/><stop stop-opacity="1" stop-color="rgb(31.329346%, 37.962341%, 87.089539%)" offset="0.652344"/><stop stop-opacity="1" stop-color="rgb(31.517029%, 37.728882%, 87.132263%)" offset="0.65625"/><stop stop-opacity="1" stop-color="rgb(31.704712%, 37.495422%, 87.174988%)" offset="0.660156"/><stop stop-opacity="1" stop-color="rgb(31.892395%, 37.263489%, 87.217712%)" offset="0.664062"/><stop stop-opacity="1" stop-color="rgb(32.080078%, 37.030029%, 87.260437%)" offset="0.667969"/><stop stop-opacity="1" stop-color="rgb(32.267761%, 36.79657%, 87.303162%)" offset="0.671875"/><stop stop-opacity="1" stop-color="rgb(32.453918%, 36.56311%, 87.34436%)" offset="0.675781"/><stop stop-opacity="1" stop-color="rgb(32.641602%, 36.331177%, 87.387085%)" offset="0.679687"/><stop stop-opacity="1" stop-color="rgb(32.829285%, 36.097717%, 87.42981%)" offset="0.683594"/><stop stop-opacity="1" stop-color="rgb(33.016968%, 35.864258%, 87.472534%)" offset="0.6875"/><stop stop-opacity="1" stop-color="rgb(33.204651%, 35.630798%, 87.515259%)" offset="0.691406"/><stop stop-opacity="1" stop-color="rgb(33.392334%, 35.397339%, 87.557983%)" offset="0.695312"/><stop stop-opacity="1" stop-color="rgb(33.580017%, 35.163879%, 87.599182%)" offset="0.699219"/><stop stop-opacity="1" stop-color="rgb(33.7677%, 34.931946%, 87.641907%)" offset="0.703125"/><stop stop-opacity="1" stop-color="rgb(33.955383%, 34.698486%, 87.684631%)" offset="0.707031"/><stop stop-opacity="1" stop-color="rgb(34.143066%, 34.465027%, 87.727356%)" offset="0.710937"/><stop stop-opacity="1" stop-color="rgb(34.33075%, 34.231567%, 87.770081%)" offset="0.714844"/><stop stop-opacity="1" stop-color="rgb(34.518433%, 33.999634%, 87.812805%)" offset="0.71875"/><stop stop-opacity="1" stop-color="rgb(34.706116%, 33.766174%, 87.854004%)" offset="0.722656"/><stop stop-opacity="1" stop-color="rgb(34.893799%, 33.532715%, 87.896729%)" offset="0.726563"/><stop stop-opacity="1" stop-color="rgb(35.081482%, 33.299255%, 87.939453%)" offset="0.730469"/><stop stop-opacity="1" stop-color="rgb(35.269165%, 33.065796%, 87.982178%)" offset="0.734375"/><stop stop-opacity="1" stop-color="rgb(35.456848%, 32.832336%, 88.024902%)" offset="0.738281"/><stop stop-opacity="1" stop-color="rgb(35.644531%, 32.600403%, 88.067627%)" offset="0.742188"/><stop stop-opacity="1" stop-color="rgb(35.832214%, 32.366943%, 88.108826%)" offset="0.746094"/><stop stop-opacity="1" stop-color="rgb(36.019897%, 32.133484%, 88.15155%)" offset="0.75"/><stop stop-opacity="1" stop-color="rgb(36.206055%, 31.900024%, 88.194275%)" offset="0.753906"/><stop stop-opacity="1" stop-color="rgb(36.393738%, 31.668091%, 88.237%)" offset="0.757813"/><stop stop-opacity="1" stop-color="rgb(36.581421%, 31.434631%, 88.279724%)" offset="0.761719"/><stop stop-opacity="1" stop-color="rgb(36.769104%, 31.201172%, 88.322449%)" offset="0.765625"/><stop stop-opacity="1" stop-color="rgb(36.956787%, 30.967712%, 88.363647%)" offset="0.769531"/><stop stop-opacity="1" stop-color="rgb(37.14447%, 30.734253%, 88.406372%)" offset="0.773438"/><stop stop-opacity="1" stop-color="rgb(37.332153%, 30.500793%, 88.449097%)" offset="0.777344"/><stop stop-opacity="1" stop-color="rgb(37.519836%, 30.26886%, 88.491821%)" offset="0.78125"/><stop stop-opacity="1" stop-color="rgb(37.70752%, 30.0354%, 88.534546%)" offset="0.785156"/><stop stop-opacity="1" stop-color="rgb(37.895203%, 29.801941%, 88.577271%)" offset="0.789063"/><stop stop-opacity="1" stop-color="rgb(38.082886%, 29.568481%, 88.618469%)" offset="0.792969"/><stop stop-opacity="1" stop-color="rgb(38.270569%, 29.336548%, 88.661194%)" offset="0.796875"/><stop stop-opacity="1" stop-color="rgb(38.458252%, 29.103088%, 88.703918%)" offset="0.800781"/><stop stop-opacity="1" stop-color="rgb(38.645935%, 28.869629%, 88.746643%)" offset="0.804688"/><stop stop-opacity="1" stop-color="rgb(38.833618%, 28.636169%, 88.787842%)" offset="0.808594"/><stop stop-opacity="1" stop-color="rgb(39.021301%, 28.40271%, 88.830566%)" offset="0.8125"/><stop stop-opacity="1" stop-color="rgb(39.208984%, 28.16925%, 88.873291%)" offset="0.816406"/><stop stop-opacity="1" stop-color="rgb(39.396667%, 27.937317%, 88.916016%)" offset="0.820313"/><stop stop-opacity="1" stop-color="rgb(39.582825%, 27.703857%, 88.95874%)" offset="0.824219"/><stop stop-opacity="1" stop-color="rgb(39.770508%, 27.470398%, 89.001465%)" offset="0.828125"/><stop stop-opacity="1" stop-color="rgb(39.958191%, 27.236938%, 89.042664%)" offset="0.832031"/><stop stop-opacity="1" stop-color="rgb(40.145874%, 27.005005%, 89.085388%)" offset="0.835938"/><stop stop-opacity="1" stop-color="rgb(40.333557%, 26.771545%, 89.128113%)" offset="0.839844"/><stop stop-opacity="1" stop-color="rgb(40.52124%, 26.538086%, 89.170837%)" offset="0.84375"/><stop stop-opacity="1" stop-color="rgb(40.708923%, 26.304626%, 89.213562%)" offset="0.847656"/><stop stop-opacity="1" stop-color="rgb(40.896606%, 26.071167%, 89.256287%)" offset="0.851562"/><stop stop-opacity="1" stop-color="rgb(41.08429%, 25.837708%, 89.297485%)" offset="0.855469"/><stop stop-opacity="1" stop-color="rgb(41.271973%, 25.605774%, 89.34021%)" offset="0.859375"/><stop stop-opacity="1" stop-color="rgb(41.459656%, 25.372314%, 89.382935%)" offset="0.863281"/><stop stop-opacity="1" stop-color="rgb(41.647339%, 25.138855%, 89.425659%)" offset="0.867188"/><stop stop-opacity="1" stop-color="rgb(41.835022%, 24.905396%, 89.468384%)" offset="0.871094"/><stop stop-opacity="1" stop-color="rgb(42.022705%, 24.673462%, 89.511108%)" offset="0.875"/><stop stop-opacity="1" stop-color="rgb(42.210388%, 24.440002%, 89.552307%)" offset="0.878906"/><stop stop-opacity="1" stop-color="rgb(42.398071%, 24.206543%, 89.595032%)" offset="0.882812"/><stop stop-opacity="1" stop-color="rgb(42.585754%, 23.973083%, 89.637756%)" offset="0.886719"/><stop stop-opacity="1" stop-color="rgb(42.773438%, 23.739624%, 89.680481%)" offset="0.890625"/><stop stop-opacity="1" stop-color="rgb(42.961121%, 23.506165%, 89.723206%)" offset="0.894531"/><stop stop-opacity="1" stop-color="rgb(43.148804%, 23.274231%, 89.76593%)" offset="0.898438"/><stop stop-opacity="1" stop-color="rgb(43.334961%, 23.040771%, 89.807129%)" offset="0.902344"/><stop stop-opacity="1" stop-color="rgb(43.522644%, 22.807312%, 89.849854%)" offset="0.90625"/><stop stop-opacity="1" stop-color="rgb(43.710327%, 22.573853%, 89.892578%)" offset="0.910156"/><stop stop-opacity="1" stop-color="rgb(43.89801%, 22.341919%, 89.935303%)" offset="0.914062"/><stop stop-opacity="1" stop-color="rgb(44.085693%, 22.108459%, 89.978027%)" offset="0.917969"/><stop stop-opacity="1" stop-color="rgb(44.273376%, 21.875%, 90.020752%)" offset="0.921875"/><stop stop-opacity="1" stop-color="rgb(44.46106%, 21.641541%, 90.061951%)" offset="0.925781"/><stop stop-opacity="1" stop-color="rgb(44.648743%, 21.408081%, 90.104675%)" offset="0.929687"/><stop stop-opacity="1" stop-color="rgb(44.836426%, 21.174622%, 90.1474%)" offset="0.933594"/><stop stop-opacity="1" stop-color="rgb(45.024109%, 20.942688%, 90.190125%)" offset="0.9375"/><stop stop-opacity="1" stop-color="rgb(45.211792%, 20.709229%, 90.232849%)" offset="0.941406"/><stop stop-opacity="1" stop-color="rgb(45.399475%, 20.475769%, 90.275574%)" offset="0.945312"/><stop stop-opacity="1" stop-color="rgb(45.587158%, 20.24231%, 90.316772%)" offset="0.949219"/><stop stop-opacity="1" stop-color="rgb(45.774841%, 20.010376%, 90.359497%)" offset="0.953125"/><stop stop-opacity="1" stop-color="rgb(45.962524%, 19.776917%, 90.402222%)" offset="0.957031"/><stop stop-opacity="1" stop-color="rgb(46.150208%, 19.543457%, 90.444946%)" offset="0.960937"/><stop stop-opacity="1" stop-color="rgb(46.337891%, 19.309998%, 90.487671%)" offset="0.964844"/><stop stop-opacity="1" stop-color="rgb(46.525574%, 19.076538%, 90.530396%)" offset="0.96875"/><stop stop-opacity="1" stop-color="rgb(46.713257%, 18.843079%, 90.571594%)" offset="0.972656"/><stop stop-opacity="1" stop-color="rgb(46.90094%, 18.611145%, 90.614319%)" offset="0.976562"/><stop stop-opacity="1" stop-color="rgb(47.087097%, 18.377686%, 90.657043%)" offset="0.980469"/><stop stop-opacity="1" stop-color="rgb(47.27478%, 18.144226%, 90.699768%)" offset="0.984375"/><stop stop-opacity="1" stop-color="rgb(47.462463%, 17.910767%, 90.742493%)" offset="0.988281"/><stop stop-opacity="1" stop-color="rgb(47.650146%, 17.678833%, 90.785217%)" offset="0.992187"/><stop stop-opacity="1" stop-color="rgb(47.83783%, 17.445374%, 90.826416%)" offset="0.996094"/><stop stop-opacity="1" stop-color="rgb(48.025513%, 17.211914%, 90.869141%)" offset="1"/></linearGradient><clipPath id="ac83470e60"><path d="M 300 215 L 332.710938 215 L 332.710938 247.507812 L 300 247.507812 Z M 300 215 " clip-rule="nonzero"/></clipPath></defs><g clip-path="url(#9c46084813)"><g clip-path="url(#95b7a95d6f)"><path fill="url(#2f721acb6d)" d="M 290.574219 205.371094 L 290.574219 256.371094 L 341.574219 256.371094 L 341.574219 205.371094 Z M 290.574219 205.371094 " fill-rule="nonzero"/></g></g><path fill="#ffffff" d="M 320.960938 224.59375 C 320.914062 224.640625 320.863281 224.683594 320.804688 224.714844 C 320.445312 224.917969 319.992188 224.792969 319.789062 224.4375 C 319.460938 223.859375 319.050781 223.324219 318.578125 222.847656 C 318.285156 222.558594 318.285156 222.085938 318.578125 221.796875 C 318.867188 221.507812 319.335938 221.507812 319.628906 221.796875 C 320.199219 222.367188 320.6875 223.007812 321.082031 223.703125 C 321.25 224 321.191406 224.363281 320.960938 224.59375 " fill-opacity="1" fill-rule="nonzero"/><path fill="#ffffff" d="M 317.242188 221.1875 C 317.03125 221.402344 316.699219 221.472656 316.410156 221.339844 C 314.671875 220.546875 312.644531 220.457031 310.839844 221.089844 C 310.453125 221.222656 310.03125 221.019531 309.894531 220.632812 C 309.757812 220.246094 309.960938 219.820312 310.347656 219.683594 C 312.542969 218.914062 314.914062 219.023438 317.027344 219.988281 C 317.398438 220.15625 317.566406 220.597656 317.394531 220.972656 C 317.355469 221.054688 317.304688 221.128906 317.242188 221.1875 " fill-opacity="1" fill-rule="nonzero"/><g clip-path="url(#ac83470e60)"><path fill="#ffffff" d="M 313.3125 238.027344 C 310.664062 238.027344 308.175781 236.996094 306.304688 235.121094 C 304.429688 233.25 303.398438 230.757812 303.398438 228.113281 C 303.398438 225.464844 304.429688 222.972656 306.304688 221.101562 C 308.175781 219.230469 310.664062 218.199219 313.3125 218.199219 C 315.960938 218.199219 318.453125 219.230469 320.324219 221.101562 C 322.195312 222.972656 323.226562 225.464844 323.226562 228.113281 C 323.226562 230.757812 322.195312 233.25 320.324219 235.121094 C 318.453125 236.996094 315.960938 238.027344 313.3125 238.027344 Z M 331.683594 243.238281 L 323.167969 235.625 C 326.882812 230.769531 326.519531 223.792969 322.078125 219.347656 C 317.238281 214.507812 309.390625 214.507812 304.550781 219.347656 C 299.710938 224.1875 299.710938 232.035156 304.550781 236.875 C 308.992188 241.316406 315.96875 241.679688 320.828125 237.96875 L 328.441406 246.484375 C 329.320312 247.464844 330.84375 247.507812 331.777344 246.578125 C 332.710938 245.644531 332.667969 244.117188 331.683594 243.238281 " fill-opacity="1" fill-rule="nonzero"/></g><g fill="#000000" fill-opacity="1"><g transform="translate(30.671571, 182.238846)"><g><path d="M 21.03125 -55.34375 L 22.375 -55.390625 C 23.757812 -55.390625 25.234375 -55.304688 26.796875 -55.140625 C 28.367188 -54.984375 30.046875 -54.554688 31.828125 -53.859375 C 35.097656 -52.503906 37.457031 -50.769531 38.90625 -48.65625 C 39.695312 -47.539062 40.332031 -46.269531 40.8125 -44.84375 C 41.289062 -43.425781 41.695312 -41.976562 42.03125 -40.5 L 33.015625 -39.25 C 32.554688 -41.53125 31.421875 -43.613281 29.609375 -45.5 C 28.742188 -46.320312 27.632812 -46.894531 26.28125 -47.21875 C 24.925781 -47.550781 23.378906 -47.71875 21.640625 -47.71875 C 17.578125 -47.71875 14.6875 -47.054688 12.96875 -45.734375 C 11.382812 -44.390625 10.59375 -42.921875 10.59375 -41.328125 C 10.59375 -41.035156 10.691406 -40.335938 10.890625 -39.234375 C 11.085938 -38.128906 12.390625 -36.960938 14.796875 -35.734375 C 17.503906 -34.710938 20.507812 -33.820312 23.8125 -33.0625 C 27.40625 -32.238281 30.835938 -31.207031 34.109375 -29.96875 C 37.378906 -28.738281 39.953125 -26.929688 41.828125 -24.546875 C 43.285156 -22.472656 44.015625 -19.898438 44.015625 -16.828125 C 43.972656 -15.804688 43.703125 -14.460938 43.203125 -12.796875 C 42.710938 -11.128906 42.085938 -9.648438 41.328125 -8.359375 C 40.671875 -7.242188 39.691406 -6.125 38.390625 -5 C 37.085938 -3.875 35.5625 -2.953125 33.8125 -2.234375 C 32.351562 -1.597656 30.640625 -1.070312 28.671875 -0.65625 C 26.710938 -0.25 24.710938 -0.046875 22.671875 -0.046875 L 22.28125 -0.046875 C 20.164062 -0.046875 17.65625 -0.3125 14.75 -0.84375 C 11.84375 -1.375 9.21875 -2.546875 6.875 -4.359375 C 3.3125 -7.265625 1.019531 -11.503906 0 -17.078125 L 9.109375 -18.515625 C 9.304688 -17.191406 9.726562 -15.820312 10.375 -14.40625 C 11.019531 -12.988281 11.953125 -11.664062 13.171875 -10.4375 C 14.222656 -9.445312 15.546875 -8.738281 17.140625 -8.3125 C 18.742188 -7.882812 20.570312 -7.671875 22.625 -7.671875 C 26.6875 -7.671875 29.6875 -8.492188 31.625 -10.140625 C 33.570312 -11.796875 34.546875 -13.710938 34.546875 -15.890625 C 34.546875 -17.867188 33.691406 -19.421875 31.984375 -20.546875 C 30.796875 -21.335938 27.773438 -22.34375 22.921875 -23.5625 C 22.585938 -23.625 22.257812 -23.707031 21.9375 -23.8125 C 19.914062 -24.300781 17.816406 -24.867188 15.640625 -25.515625 C 13.460938 -26.160156 11.332031 -26.929688 9.25 -27.828125 C 6.914062 -28.910156 5.0625 -30.523438 3.6875 -32.671875 C 2.320312 -34.816406 1.585938 -37.273438 1.484375 -40.046875 C 1.546875 -42.359375 2.085938 -44.578125 3.109375 -46.703125 C 4.140625 -48.835938 5.628906 -50.628906 7.578125 -52.078125 C 9.484375 -53.429688 11.578125 -54.335938 13.859375 -54.796875 C 15.742188 -55.191406 17.691406 -55.390625 19.703125 -55.390625 C 20.160156 -55.390625 20.601562 -55.375 21.03125 -55.34375 Z M 21.03125 -55.34375 "/></g></g></g><g fill="#000000" fill-opacity="1"><g transform="translate(80.186504, 182.238846)"><g><path d="M 27.625 -55.390625 C 32.144531 -55.390625 36.328125 -54.375 40.171875 -52.34375 C 44.015625 -50.320312 47.222656 -47.59375 49.796875 -44.15625 C 52.367188 -40.726562 54.050781 -36.832031 54.84375 -32.46875 C 55.082031 -31.019531 55.21875 -29.453125 55.25 -27.765625 C 55.25 -26.148438 55.113281 -24.582031 54.84375 -23.0625 L 10 -23.0625 C 11.09375 -19.070312 13.238281 -15.8125 16.4375 -13.28125 C 19.632812 -10.757812 23.363281 -9.5 27.625 -9.5 C 30.164062 -9.5 32.550781 -9.976562 34.78125 -10.9375 C 37.007812 -11.894531 38.945312 -13.21875 40.59375 -14.90625 L 46.390625 -7.53125 C 43.910156 -5.21875 41.0625 -3.410156 37.84375 -2.109375 C 34.625 -0.804688 31.21875 -0.15625 27.625 -0.15625 C 23.101562 -0.15625 18.910156 -1.160156 15.046875 -3.171875 C 11.179688 -5.179688 7.96875 -7.898438 5.40625 -11.328125 C 2.851562 -14.765625 1.179688 -18.675781 0.390625 -23.0625 C 0.160156 -24.488281 0.03125 -26.054688 0 -27.765625 C 0 -29.222656 0.128906 -30.789062 0.390625 -32.46875 C 1.179688 -36.832031 2.851562 -40.726562 5.40625 -44.15625 C 7.96875 -47.59375 11.179688 -50.320312 15.046875 -52.34375 C 18.910156 -54.375 23.101562 -55.390625 27.625 -55.390625 Z M 27.625 -45.984375 C 23.363281 -45.984375 19.632812 -44.722656 16.4375 -42.203125 C 13.238281 -39.679688 11.09375 -36.4375 10 -32.46875 L 45.25 -32.46875 C 44.15625 -36.4375 42.007812 -39.679688 38.8125 -42.203125 C 35.613281 -44.722656 31.882812 -45.984375 27.625 -45.984375 Z M 27.625 -45.984375 "/></g></g></g><g fill="#000000" fill-opacity="1"><g transform="translate(140.939031, 182.238846)"><g><path d="M 27.625 -55.390625 C 32.675781 -55.390625 37.296875 -54.144531 41.484375 -51.65625 C 45.671875 -49.164062 48.992188 -45.835938 51.453125 -41.671875 C 53.910156 -37.515625 55.175781 -32.878906 55.25 -27.765625 L 55.25 -0.15625 L 45.84375 -0.15625 L 45.84375 -7.078125 C 43.394531 -4.898438 40.617188 -3.203125 37.515625 -1.984375 C 34.421875 -0.765625 31.125 -0.15625 27.625 -0.15625 C 22.539062 -0.15625 17.910156 -1.398438 13.734375 -3.890625 C 9.554688 -6.378906 6.222656 -9.707031 3.734375 -13.875 C 1.242188 -18.050781 0 -22.679688 0 -27.765625 C 0 -32.816406 1.242188 -37.4375 3.734375 -41.625 C 6.222656 -45.820312 9.554688 -49.164062 13.734375 -51.65625 C 17.910156 -54.144531 22.539062 -55.390625 27.625 -55.390625 Z M 27.625 -45.984375 C 24.257812 -45.984375 21.195312 -45.164062 18.4375 -43.53125 C 15.6875 -41.90625 13.492188 -39.710938 11.859375 -36.953125 C 10.222656 -34.203125 9.40625 -31.140625 9.40625 -27.765625 C 9.40625 -24.367188 10.222656 -21.289062 11.859375 -18.53125 C 13.492188 -15.78125 15.6875 -13.585938 18.4375 -11.953125 C 21.195312 -10.316406 24.257812 -9.5 27.625 -9.5 C 30.988281 -9.5 34.046875 -10.316406 36.796875 -11.953125 C 39.554688 -13.585938 41.753906 -15.78125 43.390625 -18.53125 C 45.023438 -21.289062 45.84375 -24.367188 45.84375 -27.765625 C 45.84375 -31.140625 45.023438 -34.203125 43.390625 -36.953125 C 41.753906 -39.710938 39.554688 -41.90625 36.796875 -43.53125 C 34.046875 -45.164062 30.988281 -45.984375 27.625 -45.984375 Z M 27.625 -45.984375 "/></g></g></g><g fill="#000000" fill-opacity="1"><g transform="translate(201.691559, 182.238846)"><g><path d="M 0 -55.390625 L 9.40625 -55.390625 L 9.40625 -48.46875 C 11.84375 -50.644531 14.613281 -52.34375 17.71875 -53.5625 C 20.820312 -54.78125 24.125 -55.390625 27.625 -55.390625 L 27.625 -45.984375 C 24.257812 -45.984375 21.195312 -45.164062 18.4375 -43.53125 C 15.6875 -41.90625 13.492188 -39.710938 11.859375 -36.953125 C 10.222656 -34.203125 9.40625 -31.140625 9.40625 -27.765625 L 9.40625 -0.15625 L 0 -0.15625 Z M 0 -55.390625 "/></g></g></g><g fill="#000000" fill-opacity="1"><g transform="translate(234.8204, 182.238846)"><g><path d="M 27.625 -55.390625 C 31.21875 -55.390625 34.613281 -54.738281 37.8125 -53.4375 C 41.019531 -52.132812 43.859375 -50.328125 46.328125 -48.015625 L 39.5 -41.578125 C 37.914062 -42.960938 36.109375 -44.039062 34.078125 -44.8125 C 32.046875 -45.59375 29.894531 -45.984375 27.625 -45.984375 C 24.257812 -45.984375 21.195312 -45.164062 18.4375 -43.53125 C 15.6875 -41.90625 13.492188 -39.710938 11.859375 -36.953125 C 10.222656 -34.203125 9.40625 -31.140625 9.40625 -27.765625 C 9.40625 -24.367188 10.222656 -21.289062 11.859375 -18.53125 C 13.492188 -15.78125 15.6875 -13.585938 18.4375 -11.953125 C 21.195312 -10.316406 24.257812 -9.5 27.625 -9.5 C 29.863281 -9.5 31.988281 -9.878906 34 -10.640625 C 36.019531 -11.398438 37.820312 -12.457031 39.40625 -13.8125 L 45.84375 -7.03125 C 43.394531 -4.882812 40.613281 -3.203125 37.5 -1.984375 C 34.382812 -0.765625 31.09375 -0.15625 27.625 -0.15625 C 22.539062 -0.15625 17.910156 -1.398438 13.734375 -3.890625 C 9.554688 -6.378906 6.222656 -9.707031 3.734375 -13.875 C 1.242188 -18.050781 0 -22.679688 0 -27.765625 C 0 -32.816406 1.242188 -37.4375 3.734375 -41.625 C 6.222656 -45.820312 9.554688 -49.164062 13.734375 -51.65625 C 17.910156 -54.144531 22.539062 -55.390625 27.625 -55.390625 Z M 27.625 -55.390625 "/></g></g></g><g fill="#000000" fill-opacity="1"><g transform="translate(286.662078, 182.238846)"><g><path d="M 0 -74.15625 L 9.359375 -74.15625 L 9.359375 -48.46875 C 11.828125 -50.644531 14.613281 -52.34375 17.71875 -53.5625 C 20.820312 -54.78125 24.125 -55.390625 27.625 -55.390625 C 31.8125 -55.390625 35.613281 -54.660156 39.03125 -53.203125 C 42.445312 -51.753906 45.367188 -49.769531 47.796875 -47.25 C 50.222656 -44.726562 52.0625 -41.816406 53.3125 -38.515625 C 54.570312 -35.273438 55.203125 -31.8125 55.203125 -28.125 L 55.203125 0 L 45.84375 0 L 45.84375 -27.828125 C 45.769531 -31.222656 44.925781 -34.289062 43.3125 -37.03125 C 41.695312 -39.769531 39.507812 -41.945312 36.75 -43.5625 C 34 -45.175781 30.941406 -45.984375 27.578125 -45.984375 C 24.210938 -45.984375 21.160156 -45.175781 18.421875 -43.5625 C 15.679688 -41.945312 13.5 -39.773438 11.875 -37.046875 C 10.257812 -34.328125 9.421875 -31.269531 9.359375 -27.875 L 9.359375 -0.15625 L 0 -0.15625 Z M 0 -74.15625 "/></g></g></g><g fill="#8300e6" fill-opacity="1"><g transform="translate(33.900662, 259.363401)"><g><path d="M 0 -66.4375 L 8.375 -66.4375 L 8.375 -43.421875 C 10.59375 -45.367188 13.09375 -46.890625 15.875 -47.984375 C 18.65625 -49.078125 21.613281 -49.625 24.75 -49.625 C 28.5 -49.625 31.90625 -48.972656 34.96875 -47.671875 C 38.03125 -46.367188 40.644531 -44.585938 42.8125 -42.328125 C 44.988281 -40.066406 46.640625 -37.457031 47.765625 -34.5 C 48.890625 -31.601562 49.453125 -28.5 49.453125 -25.1875 L 49.453125 0 L 41.0625 0 L 41.0625 -24.921875 C 41.007812 -27.960938 40.253906 -30.710938 38.796875 -33.171875 C 37.347656 -35.628906 35.390625 -37.582031 32.921875 -39.03125 C 30.453125 -40.476562 27.710938 -41.203125 24.703125 -41.203125 C 21.679688 -41.203125 18.941406 -40.476562 16.484375 -39.03125 C 14.035156 -37.582031 12.085938 -35.632812 10.640625 -33.1875 C 9.191406 -30.75 8.4375 -28.007812 8.375 -24.96875 L 8.375 -0.140625 L 0 -0.140625 Z M 0 -66.4375 "/></g></g></g><g fill="#8300e6" fill-opacity="1"><g transform="translate(88.268287, 259.363401)"><g><path d="M 24.75 -49.625 C 29.269531 -49.625 33.40625 -48.503906 37.15625 -46.265625 C 40.914062 -44.035156 43.910156 -41.046875 46.140625 -37.296875 C 48.367188 -33.546875 49.484375 -29.40625 49.484375 -24.875 C 49.484375 -20.320312 48.367188 -16.175781 46.140625 -12.4375 C 43.910156 -8.695312 40.914062 -5.710938 37.15625 -3.484375 C 33.40625 -1.253906 29.269531 -0.140625 24.75 -0.140625 C 20.195312 -0.140625 16.050781 -1.253906 12.3125 -3.484375 C 8.570312 -5.710938 5.582031 -8.695312 3.34375 -12.4375 C 1.113281 -16.175781 0 -20.320312 0 -24.875 C 0 -29.40625 1.113281 -33.546875 3.34375 -37.296875 C 5.582031 -41.046875 8.570312 -44.035156 12.3125 -46.265625 C 16.050781 -48.503906 20.195312 -49.625 24.75 -49.625 Z M 24.75 -41.203125 C 21.726562 -41.203125 18.984375 -40.46875 16.515625 -39 C 14.046875 -37.539062 12.078125 -35.578125 10.609375 -33.109375 C 9.148438 -30.640625 8.421875 -27.894531 8.421875 -24.875 C 8.421875 -21.832031 9.148438 -19.078125 10.609375 -16.609375 C 12.078125 -14.140625 14.046875 -12.171875 16.515625 -10.703125 C 18.984375 -9.242188 21.726562 -8.515625 24.75 -8.515625 C 27.757812 -8.515625 30.5 -9.242188 32.96875 -10.703125 C 35.4375 -12.171875 37.398438 -14.140625 38.859375 -16.609375 C 40.328125 -19.078125 41.0625 -21.832031 41.0625 -24.875 C 41.0625 -27.894531 40.328125 -30.640625 38.859375 -33.109375 C 37.398438 -35.578125 35.4375 -37.539062 32.96875 -39 C 30.5 -40.46875 27.757812 -41.203125 24.75 -41.203125 Z M 24.75 -41.203125 "/></g></g></g><g fill="#8300e6" fill-opacity="1"><g transform="translate(142.680239, 259.363401)"><g><path d="M 0 -66.4375 L 8.421875 -66.4375 L 8.421875 -37.46875 L 24.75 -37.46875 L 24.75 -29.09375 L 8.421875 -29.09375 L 8.421875 -24.828125 C 8.453125 -21.785156 9.191406 -19.035156 10.640625 -16.578125 C 12.085938 -14.128906 14.046875 -12.171875 16.515625 -10.703125 C 18.984375 -9.242188 21.726562 -8.515625 24.75 -8.515625 L 24.75 -0.140625 C 20.21875 -0.140625 16.082031 -1.242188 12.34375 -3.453125 C 8.601562 -5.671875 5.625 -8.632812 3.40625 -12.34375 C 1.195312 -16.0625 0.0625 -20.195312 0 -24.75 Z M 0 -66.4375 "/></g></g></g><g fill="#8300e6" fill-opacity="1"><g transform="translate(172.351697, 259.363401)"><g><path d="M 24.75 -49.625 C 28.800781 -49.625 32.546875 -48.710938 35.984375 -46.890625 C 39.429688 -45.078125 42.304688 -42.632812 44.609375 -39.5625 C 46.921875 -36.488281 48.429688 -33 49.140625 -29.09375 C 49.347656 -27.789062 49.460938 -26.382812 49.484375 -24.875 C 49.484375 -23.425781 49.367188 -22.023438 49.140625 -20.671875 L 8.953125 -20.671875 C 9.929688 -17.085938 11.851562 -14.164062 14.71875 -11.90625 C 17.59375 -9.644531 20.9375 -8.515625 24.75 -8.515625 C 27.019531 -8.515625 29.148438 -8.941406 31.140625 -9.796875 C 33.140625 -10.660156 34.878906 -11.84375 36.359375 -13.34375 L 41.546875 -6.734375 C 39.335938 -4.671875 36.789062 -3.054688 33.90625 -1.890625 C 31.019531 -0.722656 27.96875 -0.140625 24.75 -0.140625 C 20.695312 -0.140625 16.941406 -1.039062 13.484375 -2.84375 C 10.023438 -4.644531 7.148438 -7.082031 4.859375 -10.15625 C 2.566406 -13.226562 1.066406 -16.734375 0.359375 -20.671875 C 0.148438 -21.941406 0.03125 -23.34375 0 -24.875 C 0 -26.175781 0.117188 -27.582031 0.359375 -29.09375 C 1.066406 -33 2.566406 -36.488281 4.859375 -39.5625 C 7.148438 -42.632812 10.023438 -45.078125 13.484375 -46.890625 C 16.941406 -48.710938 20.695312 -49.625 24.75 -49.625 Z M 24.75 -41.203125 C 20.9375 -41.203125 17.59375 -40.066406 14.71875 -37.796875 C 11.851562 -35.535156 9.929688 -32.632812 8.953125 -29.09375 L 40.53125 -29.09375 C 39.550781 -32.632812 37.628906 -35.535156 34.765625 -37.796875 C 31.898438 -40.066406 28.5625 -41.203125 24.75 -41.203125 Z M 24.75 -41.203125 "/></g></g></g><g fill="#8300e6" fill-opacity="1"><g transform="translate(226.763653, 259.363401)"><g><path d="M 0 -66.4375 L 8.421875 -66.4375 L 8.421875 -0.140625 L 0 -0.140625 Z M 0 -66.4375 "/></g></g></g><g fill="#8300e6" fill-opacity="1"><g transform="translate(240.11879, 259.363401)"><g><path d="M 18.84375 -49.578125 L 20.046875 -49.625 C 21.285156 -49.625 22.609375 -49.550781 24.015625 -49.40625 C 25.421875 -49.257812 26.921875 -48.875 28.515625 -48.25 C 31.441406 -47.039062 33.554688 -45.488281 34.859375 -43.59375 C 35.566406 -42.582031 36.132812 -41.441406 36.5625 -40.171875 C 36.988281 -38.898438 37.351562 -37.601562 37.65625 -36.28125 L 29.578125 -35.171875 C 29.160156 -37.210938 28.140625 -39.070312 26.515625 -40.75 C 25.742188 -41.488281 24.753906 -42.003906 23.546875 -42.296875 C 22.335938 -42.597656 20.945312 -42.75 19.375 -42.75 C 15.738281 -42.75 13.15625 -42.160156 11.625 -40.984375 C 10.195312 -39.765625 9.484375 -38.445312 9.484375 -37.03125 C 9.484375 -36.757812 9.570312 -36.128906 9.75 -35.140625 C 9.925781 -34.148438 11.097656 -33.109375 13.265625 -32.015625 C 15.679688 -31.097656 18.367188 -30.300781 21.328125 -29.625 C 24.554688 -28.882812 27.632812 -27.957031 30.5625 -26.84375 C 33.488281 -25.738281 35.789062 -24.125 37.46875 -22 C 38.769531 -20.132812 39.421875 -17.828125 39.421875 -15.078125 C 39.390625 -14.160156 39.148438 -12.953125 38.703125 -11.453125 C 38.265625 -9.960938 37.707031 -8.644531 37.03125 -7.5 C 36.4375 -6.488281 35.554688 -5.476562 34.390625 -4.46875 C 33.222656 -3.46875 31.859375 -2.644531 30.296875 -2 C 28.992188 -1.4375 27.460938 -0.96875 25.703125 -0.59375 C 23.941406 -0.226562 22.144531 -0.046875 20.3125 -0.046875 L 19.953125 -0.046875 C 18.066406 -0.046875 15.820312 -0.28125 13.21875 -0.75 C 10.613281 -1.226562 8.265625 -2.28125 6.171875 -3.90625 C 2.972656 -6.507812 0.914062 -10.304688 0 -15.296875 L 8.15625 -16.59375 C 8.332031 -15.40625 8.707031 -14.175781 9.28125 -12.90625 C 9.863281 -11.632812 10.703125 -10.453125 11.796875 -9.359375 C 12.742188 -8.472656 13.929688 -7.835938 15.359375 -7.453125 C 16.796875 -7.066406 18.429688 -6.875 20.265625 -6.875 C 23.898438 -6.875 26.59375 -7.613281 28.34375 -9.09375 C 30.082031 -10.570312 30.953125 -12.285156 30.953125 -14.234375 C 30.953125 -16.003906 30.1875 -17.394531 28.65625 -18.40625 C 27.582031 -19.113281 24.875 -20.015625 20.53125 -21.109375 C 20.238281 -21.171875 19.941406 -21.242188 19.640625 -21.328125 C 17.835938 -21.773438 15.960938 -22.285156 14.015625 -22.859375 C 12.066406 -23.429688 10.160156 -24.117188 8.296875 -24.921875 C 6.191406 -25.898438 4.523438 -27.347656 3.296875 -29.265625 C 2.078125 -31.191406 1.421875 -33.394531 1.328125 -35.875 C 1.390625 -37.945312 1.878906 -39.9375 2.796875 -41.84375 C 3.710938 -43.75 5.039062 -45.351562 6.78125 -46.65625 C 8.5 -47.863281 10.378906 -48.675781 12.421875 -49.09375 C 14.097656 -49.445312 15.84375 -49.625 17.65625 -49.625 C 18.0625 -49.625 18.457031 -49.609375 18.84375 -49.578125 Z M 18.84375 -49.578125 "/></g></g></g></svg>