<svg width="100%" height="100%" id="svg" viewBox="0 0 1440 590" xmlns="http://www.w3.org/2000/svg" class="transition duration-300 ease-in-out delay-150"><defs><linearGradient id="gradient" x1="0%" y1="50%" x2="100%" y2="50%"><stop offset="5%" stop-color="#fcb900"></stop><stop offset="95%" stop-color="#ff6900"></stop></linearGradient></defs><path d="M 0,600 C 0,600 0,200 0,200 C 107.03349282296651,206.10526315789474 214.06698564593302,212.21052631578945 310,200 C 405.933014354067,187.78947368421055 490.7655502392346,157.26315789473685 588,149 C 685.2344497607654,140.73684210526315 794.8708133971292,154.73684210526315 882,177 C 969.1291866028708,199.26315789473685 1033.7511961722487,229.78947368421052 1123,235 C 1212.2488038277513,240.21052631578948 1326.1244019138758,220.10526315789474 1440,200 C 1440,200 1440,600 1440,600 Z" stroke="none" stroke-width="0" fill="url(#gradient)" fill-opacity="0.53" class="transition-all duration-300 ease-in-out delay-150 path-0"></path><defs><linearGradient id="gradient" x1="0%" y1="50%" x2="100%" y2="50%"><stop offset="5%" stop-color="#fcb900"></stop><stop offset="95%" stop-color="#ff6900"></stop></linearGradient></defs><path d="M 0,600 C 0,600 0,400 0,400 C 81.45454545454547,397.52153110047846 162.90909090909093,395.04306220095697 248,385 C 333.09090909090907,374.95693779904303 421.81818181818176,357.34928229665076 527,355 C 632.1818181818182,352.65071770334924 753.8181818181819,365.5598086124402 855,372 C 956.1818181818181,378.4401913875598 1036.909090909091,378.41148325358853 1131,382 C 1225.090909090909,385.58851674641147 1332.5454545454545,392.7942583732057 1440,400 C 1440,400 1440,600 1440,600 Z" stroke="none" stroke-width="0" fill="url(#gradient)" fill-opacity="1" class="transition-all duration-300 ease-in-out delay-150 path-1"></path></svg>